<?xml version="1.0" encoding="UTF-8" standalone="no"?>
<!-- Created with Inkscape (http://www.inkscape.org/) -->

<svg
   xmlns:dc="http://purl.org/dc/elements/1.1/"
   xmlns:cc="http://creativecommons.org/ns#"
   xmlns:rdf="http://www.w3.org/1999/02/22-rdf-syntax-ns#"
   xmlns:svg="http://www.w3.org/2000/svg"
   xmlns="http://www.w3.org/2000/svg"
   version="1.1"
   width="100%"
   height="100%"
   viewBox="0 0 1448.1 592.32"
   id="svg2891">
  <defs
     id="defs3157" />
  <g
     transform="translate(-96.127,-135.22)"
     id="layer1">
    <g
       transform="translate(11.924,0)"
       id="g3229"
       style="fill:#e6e6e6">
      <g
         id="g3231">
        <path
           d="m 354.29,212.36 c 0,42.605 -34.538,77.143 -77.143,77.143 -42.605,0 -77.143,-34.538 -77.143,-77.143 0,-42.605 34.538,-77.143 77.143,-77.143 42.605,0 77.143,34.538 77.143,77.143 z"
           id="path3233"
           style="color:#000000" />
        <path
           d="m 277.13,294.46 c -93.998,0 -171.33,71.224 -181,162.66 h 34.813 c 9.4866,-72.294 71.301,-128.09 146.19,-128.09 74.886,0 136.73,55.8 146.22,128.09 h 34.812 c -9.67,-91.43 -87.04,-162.66 -181.03,-162.66 z"
           id="path3235"
           style="color:#000000" />
        <path
           d="m 277.14,292.28 c -59.204,0 -107.19,85.749 -107.19,191.5 0,3.9613 0.0548,7.8796 0.1875,11.781 h 214 c 0.13275,-3.9016 0.1875,-7.82 0.1875,-11.781 0,-105.75 -47.983,-191.5 -107.19,-191.5 z"
           id="path3237"
           style="color:#000000" />
        <g
           transform="translate(-9.3252,0)"
           id="g3239">
          <rect
             width="38.629002"
             height="242.00999"
             x="226.85001"
             y="485.53"
             id="rect3241"
             style="color:#000000" />
          <rect
             width="38.629002"
             height="242.00999"
             x="307.45999"
             y="485.53"
             id="rect3243"
             style="color:#000000" />
        </g>
      </g>
      <g
         id="g3245">
        <g
           transform="translate(362.03,0)"
           id="g3247">
          <path
             d="m 354.29,212.36 c 0,42.605 -34.538,77.143 -77.143,77.143 -42.605,0 -77.143,-34.538 -77.143,-77.143 0,-42.605 34.538,-77.143 77.143,-77.143 42.605,0 77.143,34.538 77.143,77.143 z"
             id="path3249"
             style="color:#000000" />
          <path
             d="m 277.13,294.46 c -93.998,0 -171.33,71.224 -181,162.66 h 34.813 c 9.4866,-72.294 71.301,-128.09 146.19,-128.09 74.886,0 136.73,55.8 146.22,128.09 h 34.812 c -9.67,-91.43 -87.04,-162.66 -181.03,-162.66 z"
             id="path3251"
             style="color:#000000" />
          <path
             d="m 277.14,292.28 c -59.204,0 -107.19,85.749 -107.19,191.5 0,3.9613 0.0548,7.8796 0.1875,11.781 h 214 c 0.13275,-3.9016 0.1875,-7.82 0.1875,-11.781 0,-105.75 -47.983,-191.5 -107.19,-191.5 z"
             id="path3253"
             style="color:#000000" />
          <g
             transform="translate(-9.3252,0)"
             id="g3255">
            <rect
               width="38.629002"
               height="242.00999"
               x="226.85001"
               y="485.53"
               id="rect3257"
               style="color:#000000" />
            <rect
               width="38.629002"
               height="242.00999"
               x="307.45999"
               y="485.53"
               id="rect3259"
               style="color:#000000" />
          </g>
        </g>
        <g
           transform="translate(724.06,0)"
           id="g3261">
          <path
             d="m 354.29,212.36 c 0,42.605 -34.538,77.143 -77.143,77.143 -42.605,0 -77.143,-34.538 -77.143,-77.143 0,-42.605 34.538,-77.143 77.143,-77.143 42.605,0 77.143,34.538 77.143,77.143 z"
             id="path3263"
             style="color:#000000" />
          <path
             d="m 277.13,294.46 c -93.998,0 -171.33,71.224 -181,162.66 h 34.813 c 9.4866,-72.294 71.301,-128.09 146.19,-128.09 74.886,0 136.73,55.8 146.22,128.09 h 34.812 c -9.67,-91.43 -87.04,-162.66 -181.03,-162.66 z"
             id="path3265"
             style="color:#000000" />
          <path
             d="m 277.14,292.28 c -59.204,0 -107.19,85.749 -107.19,191.5 0,3.9613 0.0548,7.8796 0.1875,11.781 h 214 c 0.13275,-3.9016 0.1875,-7.82 0.1875,-11.781 0,-105.75 -47.983,-191.5 -107.19,-191.5 z"
             id="path3267"
             style="color:#000000" />
          <g
             transform="translate(-9.3252,0)"
             id="g3269">
            <rect
               width="38.629002"
               height="242.00999"
               x="226.85001"
               y="485.53"
               id="rect3271"
               style="color:#000000" />
            <rect
               width="38.629002"
               height="242.00999"
               x="307.45999"
               y="485.53"
               id="rect3273"
               style="color:#000000" />
          </g>
        </g>
        <g
           transform="translate(1086.1,0)"
           id="g3275">
          <path
             d="m 354.29,212.36 c 0,42.605 -34.538,77.143 -77.143,77.143 -42.605,0 -77.143,-34.538 -77.143,-77.143 0,-42.605 34.538,-77.143 77.143,-77.143 42.605,0 77.143,34.538 77.143,77.143 z"
             id="path3277"
             style="color:#000000" />
          <path
             d="m 277.13,294.46 c -93.998,0 -171.33,71.224 -181,162.66 h 34.813 c 9.4866,-72.294 71.301,-128.09 146.19,-128.09 74.886,0 136.73,55.8 146.22,128.09 h 34.812 c -9.67,-91.43 -87.04,-162.66 -181.03,-162.66 z"
             id="path3279"
             style="color:#000000" />
          <path
             d="m 277.14,292.28 c -59.204,0 -107.19,85.749 -107.19,191.5 0,3.9613 0.0548,7.8796 0.1875,11.781 h 214 c 0.13275,-3.9016 0.1875,-7.82 0.1875,-11.781 0,-105.75 -47.983,-191.5 -107.19,-191.5 z"
             id="path3281"
             style="color:#000000" />
          <g
             transform="translate(-9.3252,0)"
             id="g3283">
            <rect
               width="38.629002"
               height="242.00999"
               x="226.85001"
               y="485.53"
               id="rect3285"
               style="color:#000000" />
            <rect
               width="38.629002"
               height="242.00999"
               x="307.45999"
               y="485.53"
               id="rect3287"
               style="color:#000000" />
          </g>
        </g>
      </g>
    </g>
    <g
       id="g3198">
      <g
         id="g3062"
         style="fill:#d44117">
        <path
           d="m 354.29,212.36 c 0,42.605 -34.538,77.143 -77.143,77.143 -42.605,0 -77.143,-34.538 -77.143,-77.143 0,-42.605 34.538,-77.143 77.143,-77.143 42.605,0 77.143,34.538 77.143,77.143 z"
           id="path2901"
           style="color:#000000" />
        <path
           d="m 277.13,294.46 c -93.998,0 -171.33,71.224 -181,162.66 h 34.813 c 9.4866,-72.294 71.301,-128.09 146.19,-128.09 74.886,0 136.73,55.8 146.22,128.09 h 34.812 c -9.67,-91.43 -87.04,-162.66 -181.03,-162.66 z"
           id="path2903"
           style="color:#000000" />
        <path
           d="m 277.14,292.28 c -59.204,0 -107.19,85.749 -107.19,191.5 0,3.9613 0.0548,7.8796 0.1875,11.781 h 214 c 0.13275,-3.9016 0.1875,-7.82 0.1875,-11.781 0,-105.75 -47.983,-191.5 -107.19,-191.5 z"
           id="path2911"
           style="color:#000000" />
        <g
           transform="translate(-9.3252,0)"
           id="g2922">
          <rect
             width="38.629002"
             height="242.00999"
             x="226.85001"
             y="485.53"
             id="rect2916"
             style="color:#000000" />
          <rect
             width="38.629002"
             height="242.00999"
             x="307.45999"
             y="485.53"
             id="rect2920"
             style="color:#000000" />
        </g>
      </g>
      <g
         id="g3175">
        <g
           transform="translate(362.03,0)"
           id="g3098"
           style="fill:#f2a438">
          <path
             d="m 354.29,212.36 c 0,42.605 -34.538,77.143 -77.143,77.143 -42.605,0 -77.143,-34.538 -77.143,-77.143 0,-42.605 34.538,-77.143 77.143,-77.143 42.605,0 77.143,34.538 77.143,77.143 z"
             id="path3100"
             style="color:#000000" />
          <path
             d="m 277.13,294.46 c -93.998,0 -171.33,71.224 -181,162.66 h 34.813 c 9.4866,-72.294 71.301,-128.09 146.19,-128.09 74.886,0 136.73,55.8 146.22,128.09 h 34.812 c -9.67,-91.43 -87.04,-162.66 -181.03,-162.66 z"
             id="path3102"
             style="color:#000000" />
          <path
             d="m 277.14,292.28 c -59.204,0 -107.19,85.749 -107.19,191.5 0,3.9613 0.0548,7.8796 0.1875,11.781 h 214 c 0.13275,-3.9016 0.1875,-7.82 0.1875,-11.781 0,-105.75 -47.983,-191.5 -107.19,-191.5 z"
             id="path3104"
             style="color:#000000" />
          <g
             transform="translate(-9.3252,0)"
             id="g3106">
            <rect
               width="38.629002"
               height="242.00999"
               x="226.85001"
               y="485.53"
               id="rect3108"
               style="color:#000000" />
            <rect
               width="38.629002"
               height="242.00999"
               x="307.45999"
               y="485.53"
               id="rect3110"
               style="color:#000000" />
          </g>
        </g>
        <g
           transform="translate(724.06,0)"
           id="g3112"
           style="fill:#6bb427">
          <path
             d="m 354.29,212.36 c 0,42.605 -34.538,77.143 -77.143,77.143 -42.605,0 -77.143,-34.538 -77.143,-77.143 0,-42.605 34.538,-77.143 77.143,-77.143 42.605,0 77.143,34.538 77.143,77.143 z"
             id="path3114"
             style="color:#000000" />
          <path
             d="m 277.13,294.46 c -93.998,0 -171.33,71.224 -181,162.66 h 34.813 c 9.4866,-72.294 71.301,-128.09 146.19,-128.09 74.886,0 136.73,55.8 146.22,128.09 h 34.812 c -9.67,-91.43 -87.04,-162.66 -181.03,-162.66 z"
             id="path3116"
             style="color:#000000" />
          <path
             d="m 277.14,292.28 c -59.204,0 -107.19,85.749 -107.19,191.5 0,3.9613 0.0548,7.8796 0.1875,11.781 h 214 c 0.13275,-3.9016 0.1875,-7.82 0.1875,-11.781 0,-105.75 -47.983,-191.5 -107.19,-191.5 z"
             id="path3118"
             style="color:#000000" />
          <g
             transform="translate(-9.3252,0)"
             id="g3120">
            <rect
               width="38.629002"
               height="242.00999"
               x="226.85001"
               y="485.53"
               id="rect3122"
               style="color:#000000" />
            <rect
               width="38.629002"
               height="242.00999"
               x="307.45999"
               y="485.53"
               id="rect3124"
               style="color:#000000" />
          </g>
        </g>
        <g
           transform="translate(1086.1,0)"
           id="g3126"
           style="fill:#5775b1">
          <path
             d="m 354.29,212.36 c 0,42.605 -34.538,77.143 -77.143,77.143 -42.605,0 -77.143,-34.538 -77.143,-77.143 0,-42.605 34.538,-77.143 77.143,-77.143 42.605,0 77.143,34.538 77.143,77.143 z"
             id="path3128"
             style="color:#000000" />
          <path
             d="m 277.13,294.46 c -93.998,0 -171.33,71.224 -181,162.66 h 34.813 c 9.4866,-72.294 71.301,-128.09 146.19,-128.09 74.886,0 136.73,55.8 146.22,128.09 h 34.812 c -9.67,-91.43 -87.04,-162.66 -181.03,-162.66 z"
             id="path3130"
             style="color:#000000" />
          <path
             d="m 277.14,292.28 c -59.204,0 -107.19,85.749 -107.19,191.5 0,3.9613 0.0548,7.8796 0.1875,11.781 h 214 c 0.13275,-3.9016 0.1875,-7.82 0.1875,-11.781 0,-105.75 -47.983,-191.5 -107.19,-191.5 z"
             id="path3132"
             style="color:#000000" />
          <g
             transform="translate(-9.3252,0)"
             id="g3134">
            <rect
               width="38.629002"
               height="242.00999"
               x="226.85001"
               y="485.53"
               id="rect3136"
               style="color:#000000" />
            <rect
               width="38.629002"
               height="242.00999"
               x="307.45999"
               y="485.53"
               id="rect3138"
               style="color:#000000" />
          </g>
        </g>
      </g>
    </g>
  </g>
  <metadata
     id="metadata3153">
    <rdf:RDF>
      <cc:Work>
        <dc:format>image/svg+xml</dc:format>
        <dc:type
           rdf:resource="http://purl.org/dc/dcmitype/StillImage" />
        <cc:license
           rdf:resource="http://creativecommons.org/licenses/publicdomain/" />
        <dc:publisher>
          <cc:Agent
             rdf:about="http://openclipart.org/">
            <dc:title>Openclipart</dc:title>
          </cc:Agent>
        </dc:publisher>
        <dc:title></dc:title>
        <dc:date>2010-07-21T08:49:01</dc:date>
        <dc:description>Community, clip art, clipart, crowd, group, man, men, people, svg, </dc:description>
        <dc:source>http://openclipart.org/detail/74179/community-by-russel</dc:source>
        <dc:creator>
          <cc:Agent>
            <dc:title>russel</dc:title>
          </cc:Agent>
        </dc:creator>
        <dc:subject>
          <rdf:Bag>
            <rdf:li>Community</rdf:li>
            <rdf:li>clip art</rdf:li>
            <rdf:li>clipart</rdf:li>
            <rdf:li>crowd</rdf:li>
            <rdf:li>group</rdf:li>
            <rdf:li>man</rdf:li>
            <rdf:li>men</rdf:li>
            <rdf:li>people</rdf:li>
            <rdf:li>svg</rdf:li>
          </rdf:Bag>
        </dc:subject>
      </cc:Work>
      <cc:License
         rdf:about="http://creativecommons.org/licenses/publicdomain/">
        <cc:permits
           rdf:resource="http://creativecommons.org/ns#Reproduction" />
        <cc:permits
           rdf:resource="http://creativecommons.org/ns#Distribution" />
        <cc:permits
           rdf:resource="http://creativecommons.org/ns#DerivativeWorks" />
      </cc:License>
    </rdf:RDF>
  </metadata>
</svg>
