<?xml version="1.0" encoding="UTF-8" standalone="no"?>
<!-- Created with Inkscape (http://www.inkscape.org/) -->

<svg
   xmlns:dc="http://purl.org/dc/elements/1.1/"
   xmlns:cc="http://creativecommons.org/ns#"
   xmlns:rdf="http://www.w3.org/1999/02/22-rdf-syntax-ns#"
   xmlns:svg="http://www.w3.org/2000/svg"
   xmlns="http://www.w3.org/2000/svg"
   xmlns:xlink="http://www.w3.org/1999/xlink"
   version="1.1"
   width="100%"
   height="100%"
   viewBox="0 0 45.717 46.296"
   id="svg2972">
  <defs
     id="defs2974">
    <linearGradient
       x1="-150.66"
       y1="-35.773998"
       x2="-150.66"
       y2="145.91"
       id="linearGradient6078"
       gradientUnits="userSpaceOnUse">
      <stop
         id="stop5490-37"
         style="stop-color:#fb9e00;stop-opacity:1"
         offset="0" />
      <stop
         id="stop5492-9"
         style="stop-color:#f44f00;stop-opacity:1"
         offset="1" />
    </linearGradient>
    <linearGradient
       x1="-138.55"
       y1="-33.352001"
       x2="-150.71001"
       y2="69.331001"
       id="linearGradient3331"
       gradientUnits="userSpaceOnUse"
       gradientTransform="matrix(0.91463,0,0,0.91463,1044.3,480.15)">
      <stop
         id="stop5509-7"
         style="stop-color:#ffffff;stop-opacity:1"
         offset="0" />
      <stop
         id="stop5511-0"
         style="stop-color:#ffffff;stop-opacity:0.66667002"
         offset="0" />
      <stop
         id="stop5513-48"
         style="stop-color:#9dbbe1;stop-opacity:0.089431"
         offset="1" />
    </linearGradient>
    <linearGradient
       x1="-138.55"
       y1="-33.352001"
       x2="-150.71001"
       y2="69.331001"
       id="linearGradient3034"
       xlink:href="#linearGradient3331"
       gradientUnits="userSpaceOnUse"
       gradientTransform="matrix(0.23889221,0,0,0.23889221,58.858717,58.000378)" />
    <linearGradient
       x1="-150.66"
       y1="-35.773998"
       x2="-150.66"
       y2="145.91"
       id="linearGradient3052"
       xlink:href="#linearGradient6078"
       gradientUnits="userSpaceOnUse"
       gradientTransform="matrix(0.23889221,0,0,0.23889221,58.858717,62.000378)" />
  </defs>
  <g
     transform="matrix(0.26119,0,0,0.26119,-249.92532,-40.09064)"
     id="g5690"
     style="fill:#ef4929;fill-opacity:1;stroke-width:1.89999998">
    <path
       d="m 29.357,296.26 c 0,9.0245 -7.3158,16.34 -16.34,16.34 -9.0245,0 -16.34,-7.3158 -16.34,-16.34 0,-9.0245 7.3158,-16.34 16.34,-16.34 9.0245,0 16.34,7.3158 16.34,16.34 z"
       transform="matrix(0.6614,0,0,0.62588,1049.6,94.657)"
       id="path3984"
       style="fill:#ef4929;fill-opacity:1" />
    <path
       d="m 29.357,296.26 c 0,9.0245 -7.3158,16.34 -16.34,16.34 -9.0245,0 -16.34,-7.3158 -16.34,-16.34 0,-9.0245 7.3158,-16.34 16.34,-16.34 9.0245,0 16.34,7.3158 16.34,16.34 z"
       transform="matrix(0.6614,0,0,0.62588,1007.4,94.31)"
       id="path3986"
       style="fill:#ef4929;fill-opacity:1" />
    <path
       d="m 1089.7,214.97 c -3.0278,-0.0128 -6.3415,1.8535 -8.0815,4.7724 l -18.106,30.355 h -54.772 c -4.397,0 -7.9369,3.2426 -7.9369,7.2759 0,4.0333 3.5399,7.2759 7.9369,7.2759 h 55.558 c 1.821,0 3.4794,-0.56697 4.8158,-1.506 1.4449,-0.82838 2.735,-2.0214 3.6171,-3.501 l 18.705,-31.392 h 15.791 c 4.3599,0 7.8748,-2.9422 7.8748,-6.5913 0,-3.6492 -3.5149,-6.5913 -7.8748,-6.5913 h -16.494 c -0.3425,-0.0536 -0.6806,-0.0963 -1.0334,-0.0978 z"
       id="rect3988"
       style="fill:#ef4929;fill-opacity:1" />
    <g
       transform="matrix(0.6614,0,0,0.62588,989.85,-208.53)"
       id="g4031"
       style="fill:#ef4929;fill-opacity:1">
      <path
         d="m 29.911,462.71 c 0,7.9538 -6.4478,14.402 -14.402,14.402 -7.9538,0 -14.402,-6.4478 -14.402,-14.402 0,-7.9538 6.4478,-14.402 14.402,-14.402 7.9538,0 14.402,6.4478 14.402,14.402 z"
         transform="matrix(0.84615,0,0,0.84615,6.8173,320.74)"
         id="path4003"
         style="fill:#ef4929;fill-opacity:1" />
      <path
         d="m 29.911,462.71 c 0,7.9538 -6.4478,14.402 -14.402,14.402 -7.9538,0 -14.402,-6.4478 -14.402,-14.402 0,-7.9538 6.4478,-14.402 14.402,-14.402 7.9538,0 14.402,6.4478 14.402,14.402 z"
         transform="matrix(0.84615,0,0,0.84615,34.47,320.74)"
         id="path4011"
         style="fill:#ef4929;fill-opacity:1" />
      <path
         d="m 29.911,462.71 c 0,7.9538 -6.4478,14.402 -14.402,14.402 -7.9538,0 -14.402,-6.4478 -14.402,-14.402 0,-7.9538 6.4478,-14.402 14.402,-14.402 7.9538,0 14.402,6.4478 14.402,14.402 z"
         transform="matrix(0.84615,0,0,0.84615,62.123,320.74)"
         id="path4013"
         style="fill:#ef4929;fill-opacity:1" />
      <path
         d="m 29.911,462.71 c 0,7.9538 -6.4478,14.402 -14.402,14.402 -7.9538,0 -14.402,-6.4478 -14.402,-14.402 0,-7.9538 6.4478,-14.402 14.402,-14.402 7.9538,0 14.402,6.4478 14.402,14.402 z"
         transform="matrix(0.84615,0,0,0.84615,89.776,320.74)"
         id="path4029"
         style="fill:#ef4929;fill-opacity:1" />
    </g>
    <g
       transform="matrix(0.6614,0,0,0.62588,977.66,-227.85)"
       id="g4037"
       style="fill:#ef4929;fill-opacity:1">
      <path
         d="m 29.911,462.71 c 0,7.9538 -6.4478,14.402 -14.402,14.402 -7.9538,0 -14.402,-6.4478 -14.402,-14.402 0,-7.9538 6.4478,-14.402 14.402,-14.402 7.9538,0 14.402,6.4478 14.402,14.402 z"
         transform="matrix(0.84615,0,0,0.84615,6.8173,320.74)"
         id="path4039"
         style="fill:#ef4929;fill-opacity:1" />
      <path
         d="m 29.911,462.71 c 0,7.9538 -6.4478,14.402 -14.402,14.402 -7.9538,0 -14.402,-6.4478 -14.402,-14.402 0,-7.9538 6.4478,-14.402 14.402,-14.402 7.9538,0 14.402,6.4478 14.402,14.402 z"
         transform="matrix(0.84615,0,0,0.84615,34.47,320.74)"
         id="path4041"
         style="fill:#ef4929;fill-opacity:1" />
      <path
         d="m 29.911,462.71 c 0,7.9538 -6.4478,14.402 -14.402,14.402 -7.9538,0 -14.402,-6.4478 -14.402,-14.402 0,-7.9538 6.4478,-14.402 14.402,-14.402 7.9538,0 14.402,6.4478 14.402,14.402 z"
         transform="matrix(0.84615,0,0,0.84615,62.123,320.74)"
         id="path4043"
         style="fill:#ef4929;fill-opacity:1" />
      <path
         d="m 29.911,462.71 c 0,7.9538 -6.4478,14.402 -14.402,14.402 -7.9538,0 -14.402,-6.4478 -14.402,-14.402 0,-7.9538 6.4478,-14.402 14.402,-14.402 7.9538,0 14.402,6.4478 14.402,14.402 z"
         transform="matrix(0.84615,0,0,0.84615,89.776,320.74)"
         id="path4045"
         style="fill:#ef4929;fill-opacity:1" />
      <path
         d="m 29.911,462.71 c 0,7.9538 -6.4478,14.402 -14.402,14.402 -7.9538,0 -14.402,-6.4478 -14.402,-14.402 0,-7.9538 6.4478,-14.402 14.402,-14.402 7.9538,0 14.402,6.4478 14.402,14.402 z"
         transform="matrix(0.84615,0,0,0.84615,116.99,320.74)"
         id="path5659"
         style="fill:#ef4929;fill-opacity:1" />
    </g>
  </g>
  <metadata
     id="metadata31">
    <rdf:RDF>
      <cc:Work>
        <dc:format>image/svg+xml</dc:format>
        <dc:type
           rdf:resource="http://purl.org/dc/dcmitype/StillImage" />
        <cc:license
           rdf:resource="http://creativecommons.org/licenses/publicdomain/" />
        <dc:publisher>
          <cc:Agent
             rdf:about="http://openclipart.org/">
            <dc:title>Openclipart</dc:title>
          </cc:Agent>
        </dc:publisher>
        <dc:title></dc:title>
        <dc:date>2010-08-04T09:38:44</dc:date>
        <dc:description>Set of web 2.0 icon, available as one download,look in my clip arts.</dc:description>
        <dc:source>http://openclipart.org/detail/77113/shopping-cart-by-shokunin</dc:source>
        <dc:creator>
          <cc:Agent>
            <dc:title>shokunin</dc:title>
          </cc:Agent>
        </dc:creator>
        <dc:subject>
          <rdf:Bag>
            <rdf:li>arrow</rdf:li>
            <rdf:li>backward</rdf:li>
            <rdf:li>cart</rdf:li>
            <rdf:li>clip art</rdf:li>
            <rdf:li>clipart</rdf:li>
            <rdf:li>communicator</rdf:li>
            <rdf:li>computer</rdf:li>
            <rdf:li>desktop</rdf:li>
            <rdf:li>earth</rdf:li>
            <rdf:li>email</rdf:li>
            <rdf:li>forward</rdf:li>
            <rdf:li>globe</rdf:li>
            <rdf:li>home</rdf:li>
            <rdf:li>icons</rdf:li>
            <rdf:li>info</rdf:li>
            <rdf:li>information</rdf:li>
            <rdf:li>interface</rdf:li>
            <rdf:li>lock</rdf:li>
            <rdf:li>mail</rdf:li>
            <rdf:li>message</rdf:li>
            <rdf:li>messenger</rdf:li>
            <rdf:li>network</rdf:li>
            <rdf:li>networking</rdf:li>
            <rdf:li>pidgin</rdf:li>
            <rdf:li>planet</rdf:li>
            <rdf:li>play</rdf:li>
            <rdf:li>secure</rdf:li>
            <rdf:li>security</rdf:li>
            <rdf:li>server</rdf:li>
            <rdf:li>shopping</rdf:li>
            <rdf:li>sms.text</rdf:li>
            <rdf:li>unlock</rdf:li>
            <rdf:li>unsecured</rdf:li>
            <rdf:li>web</rdf:li>
            <rdf:li>web 2.0</rdf:li>
          </rdf:Bag>
        </dc:subject>
      </cc:Work>
      <cc:License
         rdf:about="http://creativecommons.org/licenses/publicdomain/">
        <cc:permits
           rdf:resource="http://creativecommons.org/ns#Reproduction" />
        <cc:permits
           rdf:resource="http://creativecommons.org/ns#Distribution" />
        <cc:permits
           rdf:resource="http://creativecommons.org/ns#DerivativeWorks" />
      </cc:License>
    </rdf:RDF>
  </metadata>
</svg>
