<?xml version="1.0" encoding="UTF-8" standalone="no"?>
<!-- Created with Inkscape (http://www.inkscape.org/) -->

<svg
   xmlns:dc="http://purl.org/dc/elements/1.1/"
   xmlns:cc="http://creativecommons.org/ns#"
   xmlns:rdf="http://www.w3.org/1999/02/22-rdf-syntax-ns#"
   xmlns:svg="http://www.w3.org/2000/svg"
   xmlns="http://www.w3.org/2000/svg"
   xmlns:xlink="http://www.w3.org/1999/xlink"
   xmlns:sodipodi="http://sodipodi.sourceforge.net/DTD/sodipodi-0.dtd"
   xmlns:inkscape="http://www.inkscape.org/namespaces/inkscape"
   width="1052.3622"
   height="744.09448"
   id="svg2"
   version="1.1"
   inkscape:version="0.48.0 r9654"
   sodipodi:docname="cityscape_night.svg">
  <defs
     id="defs4">
    <linearGradient
       inkscape:collect="always"
       id="linearGradient3079">
      <stop
         style="stop-color:#80e5ff;stop-opacity:1;"
         offset="0"
         id="stop3081" />
      <stop
         style="stop-color:#80e5ff;stop-opacity:0;"
         offset="1"
         id="stop3083" />
    </linearGradient>
    <linearGradient
       inkscape:collect="always"
       id="linearGradient3828">
      <stop
         style="stop-color:#80e5ff;stop-opacity:1;"
         offset="0"
         id="stop3830" />
      <stop
         style="stop-color:#80e5ff;stop-opacity:0;"
         offset="1"
         id="stop3832" />
    </linearGradient>
    <linearGradient
       inkscape:collect="always"
       id="linearGradient3818">
      <stop
         style="stop-color:#80e5ff;stop-opacity:1;"
         offset="0"
         id="stop3820" />
      <stop
         style="stop-color:#80e5ff;stop-opacity:0;"
         offset="1"
         id="stop3822" />
    </linearGradient>
    <linearGradient
       inkscape:collect="always"
       id="linearGradient3775">
      <stop
         style="stop-color:#80e5ff;stop-opacity:1;"
         offset="0"
         id="stop3777" />
      <stop
         style="stop-color:#80e5ff;stop-opacity:0;"
         offset="1"
         id="stop3779" />
    </linearGradient>
    <linearGradient
       inkscape:collect="always"
       id="linearGradient3765">
      <stop
         style="stop-color:#80e5ff;stop-opacity:1;"
         offset="0"
         id="stop3767" />
      <stop
         style="stop-color:#80e5ff;stop-opacity:0;"
         offset="1"
         id="stop3769" />
    </linearGradient>
    <linearGradient
       inkscape:collect="always"
       id="linearGradient3757">
      <stop
         style="stop-color:#80e5ff;stop-opacity:1;"
         offset="0"
         id="stop3759" />
      <stop
         style="stop-color:#80e5ff;stop-opacity:0;"
         offset="1"
         id="stop3761" />
    </linearGradient>
    <linearGradient
       inkscape:collect="always"
       xlink:href="#linearGradient3757"
       id="linearGradient3763"
       x1="735.47559"
       y1="885.73096"
       x2="722.82202"
       y2="1015.5068"
       gradientUnits="userSpaceOnUse" />
    <linearGradient
       inkscape:collect="always"
       xlink:href="#linearGradient3765"
       id="linearGradient3771"
       x1="381.91891"
       y1="925.05585"
       x2="376.50165"
       y2="1048.2993"
       gradientUnits="userSpaceOnUse" />
    <linearGradient
       inkscape:collect="always"
       xlink:href="#linearGradient3775"
       id="linearGradient3781"
       x1="208.76782"
       y1="510.33197"
       x2="203.78255"
       y2="1043.7688"
       gradientUnits="userSpaceOnUse"
       gradientTransform="matrix(0.76811594,0,0,0.6111111,65.425576,15.64697)" />
    <linearGradient
       inkscape:collect="always"
       xlink:href="#linearGradient3775"
       id="linearGradient3785"
       gradientUnits="userSpaceOnUse"
       gradientTransform="matrix(0.37681161,0,0,0.39743589,226.22759,241.08366)"
       x1="208.76782"
       y1="510.33197"
       x2="205.4101"
       y2="885.63483" />
    <linearGradient
       inkscape:collect="always"
       xlink:href="#linearGradient3818"
       id="linearGradient3824"
       x1="712.3736"
       y1="670.44324"
       x2="708.31061"
       y2="1042.882"
       gradientUnits="userSpaceOnUse"
       gradientTransform="translate(18.960514,-46.046962)" />
    <linearGradient
       inkscape:collect="always"
       xlink:href="#linearGradient3828"
       id="linearGradient3834"
       x1="1645.0164"
       y1="951.88184"
       x2="1646.9984"
       y2="1048.0868"
       gradientUnits="userSpaceOnUse" />
    <linearGradient
       inkscape:collect="always"
       xlink:href="#linearGradient3828"
       id="linearGradient4119"
       gradientUnits="userSpaceOnUse"
       gradientTransform="matrix(1.4495566,0,0,2.4985221,-1834.853,-1879.3618)"
       x1="1617.9216"
       y1="902.55536"
       x2="1669.4216"
       y2="1031.8253" />
    <linearGradient
       inkscape:collect="always"
       xlink:href="#linearGradient3079"
       id="linearGradient3085"
       x1="316.91144"
       y1="295.29596"
       x2="319.62009"
       y2="826.19037"
       gradientUnits="userSpaceOnUse"
       gradientTransform="matrix(0.99095771,0,0,0.99491669,4.7637604,5.3839076)" />
  </defs>
  <sodipodi:namedview
     id="base"
     pagecolor="#ffffff"
     bordercolor="#666666"
     borderopacity="1.0"
     inkscape:pageopacity="0.0"
     inkscape:pageshadow="2"
     inkscape:zoom="1.0442222"
     inkscape:cx="514.39362"
     inkscape:cy="368.2924"
     inkscape:document-units="px"
     inkscape:current-layer="layer1"
     showgrid="false"
     inkscape:window-width="1400"
     inkscape:window-height="994"
     inkscape:window-x="-4"
     inkscape:window-y="-4"
     inkscape:window-maximized="1"
     inkscape:snap-global="false" />
  <metadata
     id="metadata7">
    <rdf:RDF>
      <cc:Work
         rdf:about="">
        <dc:format>image/svg+xml</dc:format>
        <dc:type
           rdf:resource="http://purl.org/dc/dcmitype/StillImage" />
        <dc:title></dc:title>
      </cc:Work>
    </rdf:RDF>
  </metadata>
  <g
     inkscape:label="Layer 1"
     inkscape:groupmode="layer"
     id="layer1"
     transform="translate(0,-308.2677)">
    <rect
       style="fill:url(#linearGradient3085);fill-opacity:1;fill-rule:evenodd;stroke:#ed0c0c;stroke-width:0;stroke-linecap:round;stroke-linejoin:round;stroke-miterlimit:4;stroke-opacity:1;stroke-dasharray:none;stroke-dashoffset:24.75"
       id="rect4121"
       width="1049.5037"
       height="749.73358"
       x="2.079608"
       y="309.40015" />
    <path
       style="fill:url(#linearGradient3781);fill-opacity:1;fill-rule:evenodd;stroke:none"
       d="M 174.28125 359.125 L 174.28125 633 L 275.8125 633 L 275.8125 359.125 L 174.28125 359.125 z M 177.21875 366.75 L 182.375 366.75 L 182.375 371.9375 L 177.21875 371.9375 L 177.21875 366.75 z M 187.1875 366.75 L 192.34375 366.75 L 192.34375 371.9375 L 187.1875 371.9375 L 187.1875 366.75 z M 197.125 366.75 L 202.3125 366.75 L 202.3125 371.9375 L 197.125 371.9375 L 197.125 366.75 z M 207.09375 366.75 L 212.25 366.75 L 212.25 371.9375 L 207.09375 371.9375 L 207.09375 366.75 z M 233.65625 366.75 L 238.8125 366.75 L 238.8125 371.9375 L 233.65625 371.9375 L 233.65625 366.75 z M 243.59375 366.75 L 248.78125 366.75 L 248.78125 371.9375 L 243.59375 371.9375 L 243.59375 366.75 z M 253.5625 366.75 L 258.71875 366.75 L 258.71875 371.9375 L 253.5625 371.9375 L 253.5625 366.75 z M 177.21875 386.6875 L 182.375 386.6875 L 182.375 391.84375 L 177.21875 391.84375 L 177.21875 386.6875 z M 187.1875 386.6875 L 192.34375 386.6875 L 192.34375 391.84375 L 187.1875 391.84375 L 187.1875 386.6875 z M 197.125 386.6875 L 202.3125 386.6875 L 202.3125 391.84375 L 197.125 391.84375 L 197.125 386.6875 z M 207.09375 386.6875 L 212.25 386.6875 L 212.25 391.84375 L 207.09375 391.84375 L 207.09375 386.6875 z M 227 386.6875 L 232.1875 386.6875 L 232.1875 391.84375 L 227 391.84375 L 227 386.6875 z M 236.96875 386.6875 L 242.125 386.6875 L 242.125 391.84375 L 236.96875 391.84375 L 236.96875 386.6875 z M 246.9375 386.6875 L 252.09375 386.6875 L 252.09375 391.84375 L 246.9375 391.84375 L 246.9375 386.6875 z M 256.875 386.6875 L 262.03125 386.6875 L 262.03125 391.84375 L 256.875 391.84375 L 256.875 386.6875 z M 266.84375 386.6875 L 272 386.6875 L 272 391.84375 L 266.84375 391.84375 L 266.84375 386.6875 z M 177.21875 406.59375 L 182.375 406.59375 L 182.375 411.75 L 177.21875 411.75 L 177.21875 406.59375 z M 187.1875 406.59375 L 192.34375 406.59375 L 192.34375 411.75 L 187.1875 411.75 L 187.1875 406.59375 z M 197.125 406.59375 L 202.3125 406.59375 L 202.3125 411.75 L 197.125 411.75 L 197.125 406.59375 z M 207.09375 406.59375 L 212.25 406.59375 L 212.25 411.75 L 207.09375 411.75 L 207.09375 406.59375 z M 233.65625 406.59375 L 238.8125 406.59375 L 238.8125 411.75 L 233.65625 411.75 L 233.65625 406.59375 z M 243.59375 406.59375 L 248.78125 406.59375 L 248.78125 411.75 L 243.59375 411.75 L 243.59375 406.59375 z M 253.5625 406.59375 L 258.71875 406.59375 L 258.71875 411.75 L 253.5625 411.75 L 253.5625 406.59375 z M 177.21875 426.5 L 182.375 426.5 L 182.375 431.65625 L 177.21875 431.65625 L 177.21875 426.5 z M 187.1875 426.5 L 192.34375 426.5 L 192.34375 431.65625 L 187.1875 431.65625 L 187.1875 426.5 z M 197.125 426.5 L 202.3125 426.5 L 202.3125 431.65625 L 197.125 431.65625 L 197.125 426.5 z M 207.09375 426.5 L 212.25 426.5 L 212.25 431.65625 L 207.09375 431.65625 L 207.09375 426.5 z M 227 426.5 L 232.1875 426.5 L 232.1875 431.65625 L 227 431.65625 L 227 426.5 z M 236.96875 426.5 L 242.125 426.5 L 242.125 431.65625 L 236.96875 431.65625 L 236.96875 426.5 z M 246.9375 426.5 L 252.09375 426.5 L 252.09375 431.65625 L 246.9375 431.65625 L 246.9375 426.5 z M 256.875 426.5 L 262.03125 426.5 L 262.03125 431.65625 L 256.875 431.65625 L 256.875 426.5 z M 266.84375 426.5 L 272 426.5 L 272 431.65625 L 266.84375 431.65625 L 266.84375 426.5 z M 177.21875 446.40625 L 182.375 446.40625 L 182.375 451.59375 L 177.21875 451.59375 L 177.21875 446.40625 z M 187.1875 446.40625 L 192.34375 446.40625 L 192.34375 451.59375 L 187.1875 451.59375 L 187.1875 446.40625 z M 197.125 446.40625 L 202.3125 446.40625 L 202.3125 451.59375 L 197.125 451.59375 L 197.125 446.40625 z M 207.09375 446.40625 L 212.25 446.40625 L 212.25 451.59375 L 207.09375 451.59375 L 207.09375 446.40625 z M 233.65625 446.40625 L 238.8125 446.40625 L 238.8125 451.59375 L 233.65625 451.59375 L 233.65625 446.40625 z M 243.59375 446.40625 L 248.78125 446.40625 L 248.78125 451.59375 L 243.59375 451.59375 L 243.59375 446.40625 z M 253.5625 446.40625 L 258.71875 446.40625 L 258.71875 451.59375 L 253.5625 451.59375 L 253.5625 446.40625 z M 177.21875 466.34375 L 182.375 466.34375 L 182.375 471.5 L 177.21875 471.5 L 177.21875 466.34375 z M 187.1875 466.34375 L 192.34375 466.34375 L 192.34375 471.5 L 187.1875 471.5 L 187.1875 466.34375 z M 197.125 466.34375 L 202.3125 466.34375 L 202.3125 471.5 L 197.125 471.5 L 197.125 466.34375 z M 207.09375 466.34375 L 212.25 466.34375 L 212.25 471.5 L 207.09375 471.5 L 207.09375 466.34375 z M 227 466.34375 L 232.1875 466.34375 L 232.1875 471.5 L 227 471.5 L 227 466.34375 z M 236.96875 466.34375 L 242.125 466.34375 L 242.125 471.5 L 236.96875 471.5 L 236.96875 466.34375 z M 246.9375 466.34375 L 252.09375 466.34375 L 252.09375 471.5 L 246.9375 471.5 L 246.9375 466.34375 z M 256.875 466.34375 L 262.03125 466.34375 L 262.03125 471.5 L 256.875 471.5 L 256.875 466.34375 z M 266.84375 466.34375 L 272 466.34375 L 272 471.5 L 266.84375 471.5 L 266.84375 466.34375 z M 177.21875 486.25 L 182.375 486.25 L 182.375 491.40625 L 177.21875 491.40625 L 177.21875 486.25 z M 187.1875 486.25 L 192.34375 486.25 L 192.34375 491.40625 L 187.1875 491.40625 L 187.1875 486.25 z M 197.125 486.25 L 202.3125 486.25 L 202.3125 491.40625 L 197.125 491.40625 L 197.125 486.25 z M 207.09375 486.25 L 212.25 486.25 L 212.25 491.40625 L 207.09375 491.40625 L 207.09375 486.25 z M 233.65625 486.25 L 238.8125 486.25 L 238.8125 491.40625 L 233.65625 491.40625 L 233.65625 486.25 z M 243.59375 486.25 L 248.78125 486.25 L 248.78125 491.40625 L 243.59375 491.40625 L 243.59375 486.25 z M 253.5625 486.25 L 258.71875 486.25 L 258.71875 491.40625 L 253.5625 491.40625 L 253.5625 486.25 z M 177.21875 506.15625 L 182.375 506.15625 L 182.375 511.34375 L 177.21875 511.34375 L 177.21875 506.15625 z M 187.1875 506.15625 L 192.34375 506.15625 L 192.34375 511.34375 L 187.1875 511.34375 L 187.1875 506.15625 z M 197.125 506.15625 L 202.3125 506.15625 L 202.3125 511.34375 L 197.125 511.34375 L 197.125 506.15625 z M 207.09375 506.15625 L 212.25 506.15625 L 212.25 511.34375 L 207.09375 511.34375 L 207.09375 506.15625 z M 227 506.15625 L 232.1875 506.15625 L 232.1875 511.34375 L 227 511.34375 L 227 506.15625 z M 236.96875 506.15625 L 242.125 506.15625 L 242.125 511.34375 L 236.96875 511.34375 L 236.96875 506.15625 z M 246.9375 506.15625 L 252.09375 506.15625 L 252.09375 511.34375 L 246.9375 511.34375 L 246.9375 506.15625 z M 256.875 506.15625 L 262.03125 506.15625 L 262.03125 511.34375 L 256.875 511.34375 L 256.875 506.15625 z M 266.84375 506.15625 L 272 506.15625 L 272 511.34375 L 266.84375 511.34375 L 266.84375 506.15625 z "
       transform="translate(0,308.2677)"
       id="rect3773" />
    <path
       style="fill:url(#linearGradient3824);fill-opacity:1;fill-rule:evenodd;stroke:#ed0c0c;stroke-width:0;stroke-linecap:round;stroke-linejoin:round;stroke-miterlimit:4;stroke-opacity:1;stroke-dasharray:none;stroke-dashoffset:24.75000000000000000"
       d="m 660.86631,878.68403 -4.3e-4,-49.31873 8.97022,0.37188 c 4.98582,0.20665 9.42238,-0.0806 9.98866,-0.64686 0.56756,-0.56746 0.70412,-2.69791 0.30959,-4.80815 -0.67281,-3.58492 -0.9295,-3.78916 -4.77004,-3.78916 -3.3632,0 -4.05904,-0.35794 -4.05904,-2.08759 0,-1.73964 0.69584,-2.08754 4.17545,-2.08754 4.81922,0 4.40238,1.63922 4.64262,-18.26122 0.12584,-10.56062 0.41427,-12.57069 1.81809,-12.84147 2.12583,-0.40938 2.88659,-4.4184 2.16545,-11.40602 -0.37924,-3.66756 -1.0419,-5.50533 -1.98755,-5.50533 -0.98713,0 -1.41999,-1.43244 -1.41999,-4.69699 0,-3.47927 0.4054,-4.69704 1.56599,-4.69704 1.13055,0 1.56556,-1.15974 1.56556,-4.17513 0,-3.01538 -0.43587,-4.17512 -1.56556,-4.17512 -0.88717,0 -1.62533,-1.01787 -1.70341,-2.34853 -0.0744,-1.29166 -0.0658,-29.59123 0.0443,-62.88788 0.0872,-33.29666 0.14829,-61.59624 0.14014,-62.8879 0,-1.6598 0.59073,-2.34852 2.06605,-2.34852 1.72601,0 2.08751,-0.69586 2.08751,-4.01883 l 0,-4.01883 9.55437,-0.6782 c 5.2548,-0.3732 11.83064,-0.67816 14.61312,-0.67816 3.60816,0 5.05818,-0.41331 5.05818,-1.44225 0,-1.05603 2.37608,-1.64011 8.87255,-2.18125 7.77917,-0.64803 8.87211,-0.98465 8.87211,-2.73292 0,-1.80624 0.83441,-1.99388 8.87212,-1.99388 l 8.87212,0 0,4.04176 c 0,3.90822 0.14014,4.06378 4.17487,4.70932 3.24724,0.51926 4.17545,1.12893 4.17545,2.74286 0,1.72525 -0.70413,2.07525 -4.17545,2.07525 -3.47903,0 -4.17487,-0.3479 -4.17487,-2.08758 0,-1.39168 -0.69583,-2.08755 -2.08793,-2.08755 -1.39153,0 -2.08737,-0.69586 -2.08737,-2.08757 0,-1.72918 -0.69583,-2.08755 -4.05332,-2.08755 -3.17559,0 -4.17144,0.4521 -4.59915,2.08755 -0.43157,1.6587 -1.42385,2.08757 -4.8188,2.08757 -3.10237,0 -4.27296,0.429 -4.27296,1.56568 0,1.17033 -1.25168,1.56856 -4.95794,1.57715 -8.63803,0.0217 -12.7863,1.07652 -12.7863,3.25643 0,1.85011 1.26826,1.951 24.52885,1.951 l 24.52885,0 0,104.90015 0,104.90015 6.2628,0 c 5.98425,0 6.26238,-0.11597 6.26238,-2.60945 0,-2.34085 0.42299,-2.60944 4.10251,-2.60944 3.46002,0 4.15485,0.36795 4.43613,2.34851 0.21794,1.54143 1.05119,2.34848 2.42141,2.34848 1.37023,0 2.20205,-0.80705 2.42099,-2.34848 0.27899,-1.9806 0.97611,-2.34851 4.43598,-2.34851 l 4.10266,0 0,10.95969 c 0,10.26385 -0.13013,10.95971 -2.08751,10.95971 -1.73787,0 -2.11138,0.74326 -2.22965,4.43611 -0.0786,2.43981 -0.34434,3.3792 -0.59459,2.08753 -0.24853,-1.29165 -1.1244,-2.34851 -1.94536,-2.34851 -1.12913,0 -1.4932,1.52705 -1.4932,6.26271 0,5.56686 0.23108,6.26268 2.0875,6.26268 1.61618,0 2.05562,0.64846 1.94565,2.87041 -0.12154,2.4611 -0.20477,2.53551 -0.59459,0.52191 -0.80737,-4.19213 -3.43856,-2.79443 -3.43856,1.82662 0,3.47926 0.34877,4.17512 2.0875,4.17512 1.39153,0 2.0878,0.69587 2.0878,2.08754 0,1.39173 -0.69627,2.08759 -2.0878,2.08759 -1.34505,0 -2.0875,0.69587 -2.0875,1.95709 0,1.74601 3.45601,3.26181 7.43683,3.26181 0.50236,0 0.91348,-3.05306 0.91348,-6.78457 0,-6.08872 0.21364,-6.78458 2.08736,-6.78458 1.91391,0 2.08794,0.69586 2.08794,8.35025 0,7.65439 -0.17446,8.35026 -2.08794,8.35026 -1.77834,0 -2.08736,0.69586 -2.08736,4.69703 0,4.00113 -0.30959,4.69699 -2.08751,4.69699 -1.39167,0 -2.0875,0.69587 -2.0875,2.08759 0,1.8556 0.69583,2.08754 6.26237,2.08754 5.56697,0 6.26281,-0.23194 6.26281,-2.08754 0,-1.39172 0.69584,-2.08759 2.08751,-2.08759 1.39167,0 2.08793,0.69587 2.08793,2.08759 0,1.7783 0.6957,2.08754 4.69668,2.08754 4.00141,0 4.69725,-0.30911 4.69725,-2.08754 0,-1.15974 0.69583,-2.08759 1.56556,-2.08759 1.32632,0 1.56555,2.55147 1.56555,16.70056 l 0,16.70051 -78.80531,0 -78.80574,0 0,-49.31874 z m 97.07193,-1.6735 c 0,-25.57925 0.71886,-34.59794 2.75789,-34.59794 0.95752,0 1.41698,-1.35449 1.41698,-4.17513 0,-2.84666 -0.45646,-4.17513 -1.43529,-4.17513 -0.78907,0 -1.72858,-1.4678 -2.08736,-3.2618 -0.3575,-1.794 -0.65222,-48.99908 -0.65222,-104.90015 l 0,-101.63835 -4.17545,0 -4.17487,0 0,102.81262 c 0,102.11669 0,102.81255 2.08751,102.81255 1.15973,0 2.08736,0.69587 2.08736,1.56568 0,0.86982 -0.92763,1.56568 -2.08736,1.56568 -2.04346,0 -2.08751,0.69587 -2.08751,32.87915 l 0,32.87912 4.17487,0 4.17545,0 0,-21.7663 z m 26.09441,17.59117 c 0,-3.43693 0.35749,-4.17512 2.02601,-4.17512 2.71699,0 3.48519,-1.51131 2.66551,-5.24435 -0.73287,-3.33623 -3.56884,-4.29883 -3.76889,-1.27929 -0.11297,1.73967 -0.14386,1.73967 -0.59817,0 -0.26169,-1.00463 -1.14757,-1.82662 -1.96667,-1.82662 -1.06163,0 -1.48891,-1.30453 -1.48891,-4.54391 0,-2.49916 -0.30087,-7.43101 -0.67096,-10.95971 -0.55541,-5.31525 -1.00314,-6.41579 -2.60931,-6.41579 -1.73744,0 -1.93879,-0.92266 -1.93879,-8.87216 l 0,-8.87216 4.17488,0 c 3.27511,0 4.17844,-0.39369 4.18974,-1.82662 0,-1.00461 0.28342,-2.82421 0.60903,-4.0435 0.5271,-1.96394 0.0443,-2.3003 -4.2764,-2.94742 -2.67952,-0.40197 -6.71111,-0.41984 -8.95935,-0.0392 -3.94078,0.66573 -4.08821,0.83804 -4.08821,4.77403 0,3.38754 0.3575,4.0834 2.08751,4.0834 1.91176,0 2.08736,0.69585 2.08736,8.25853 l 0,8.25847 -4.17487,0.70542 -4.1753,0.70536 0,6.17094 c 0,5.47513 0.23538,6.17099 2.08794,6.17099 1.97625,0 2.08736,0.69586 2.08736,13.04725 l 0,13.04729 8.35031,0 8.35018,0 0,-4.17513 0,0 z m 4.17501,2.0876 c 0,-1.15974 -0.69584,-2.0876 -1.5657,-2.0876 -0.86973,0 -1.56556,0.92786 -1.56556,2.0876 0,1.15974 0.69583,2.08753 1.56556,2.08753 0.86986,0 1.5657,-0.92779 1.5657,-2.08753 z M 705.74871,617.99932 c 0,-1.39168 -0.6957,-2.08755 -2.08737,-2.08755 -1.39167,0 -2.0875,0.69587 -2.0875,2.08755 0,1.39172 0.69583,2.08758 2.0875,2.08758 1.39167,0 2.08737,-0.69586 2.08737,-2.08758 z"
       id="path3816"
       inkscape:connector-curvature="0" />
    <path
       style="fill:url(#linearGradient3771);stroke:#000000;stroke-width:0;stroke-linecap:butt;stroke-linejoin:miter;stroke-miterlimit:4;stroke-opacity:1;stroke-dasharray:none;fill-opacity:1"
       d="M 0.0250537,1052.3314 C 1.2634523,1002.4679 -4.2051247,939.59623 1.8855313,933.7262 155.0548,786.10497 488.94172,909.39419 748.88274,1052.3622"
       id="path2985"
       inkscape:connector-curvature="0"
       sodipodi:nodetypes="ccc" />
    <path
       style="font-size:medium;font-style:normal;font-variant:normal;font-weight:normal;font-stretch:normal;text-indent:0;text-align:start;text-decoration:none;line-height:normal;letter-spacing:normal;word-spacing:normal;text-transform:none;direction:ltr;block-progression:tb;writing-mode:lr-tb;text-anchor:start;baseline-shift:baseline;color:#000000;fill:url(#linearGradient4119);fill-opacity:1;stroke:none;stroke-width:1;marker:none;visibility:visible;display:inline;overflow:visible;enable-background:accumulate;font-family:Sans;-inkscape-font-specification:Sans"
       d="M 547.90625 378.28125 L 546.9375 458.25 L 536.3125 474.75 L 520.84375 474.75 L 520.125 474.75 L 520.125 476 L 520.125 690.25 L 575.71875 690.25 L 575.71875 476 L 575.71875 474.75 L 575 474.75 L 559.3125 474.75 L 548.40625 458.28125 L 547.90625 378.28125 z M 548.40625 458.53125 L 557.0625 474.75 L 548.5 474.75 L 548.40625 458.53125 z M 546.90625 458.75 L 546.71875 474.75 L 539.4375 474.75 L 546.90625 458.75 z M 524.96875 481.84375 L 528.4375 481.84375 L 528.4375 484.875 L 524.96875 484.875 L 524.96875 481.84375 z M 531.625 481.84375 L 535.09375 481.84375 L 535.09375 484.875 L 531.625 484.875 L 531.625 481.84375 z M 538.28125 481.84375 L 541.71875 481.84375 L 541.71875 484.875 L 538.28125 484.875 L 538.28125 481.84375 z M 554.9375 481.84375 L 558.375 481.84375 L 558.375 484.875 L 554.9375 484.875 L 554.9375 481.84375 z M 561.59375 481.84375 L 565.03125 481.84375 L 565.03125 484.875 L 561.59375 484.875 L 561.59375 481.84375 z M 568.25 481.84375 L 571.6875 481.84375 L 571.6875 484.875 L 568.25 484.875 L 568.25 481.84375 z M 524.96875 493.4375 L 528.4375 493.4375 L 528.4375 496.4375 L 524.96875 496.4375 L 524.96875 493.4375 z M 531.625 493.4375 L 535.09375 493.4375 L 535.09375 496.4375 L 531.625 496.4375 L 531.625 493.4375 z M 538.28125 493.4375 L 541.71875 493.4375 L 541.71875 496.4375 L 538.28125 496.4375 L 538.28125 493.4375 z M 554.9375 493.4375 L 558.375 493.4375 L 558.375 496.4375 L 554.9375 496.4375 L 554.9375 493.4375 z M 561.59375 493.4375 L 565.03125 493.4375 L 565.03125 496.4375 L 561.59375 496.4375 L 561.59375 493.4375 z M 568.25 493.4375 L 571.6875 493.4375 L 571.6875 496.4375 L 568.25 496.4375 L 568.25 493.4375 z M 524.96875 505 L 528.4375 505 L 528.4375 508 L 524.96875 508 L 524.96875 505 z M 531.625 505 L 535.09375 505 L 535.09375 508 L 531.625 508 L 531.625 505 z M 538.28125 505 L 541.71875 505 L 541.71875 508 L 538.28125 508 L 538.28125 505 z M 554.9375 505 L 558.375 505 L 558.375 508 L 554.9375 508 L 554.9375 505 z M 561.59375 505 L 565.03125 505 L 565.03125 508 L 561.59375 508 L 561.59375 505 z M 568.25 505 L 571.6875 505 L 571.6875 508 L 568.25 508 L 568.25 505 z M 524.96875 516.5625 L 528.4375 516.5625 L 528.4375 519.5625 L 524.96875 519.5625 L 524.96875 516.5625 z M 531.625 516.5625 L 535.09375 516.5625 L 535.09375 519.5625 L 531.625 519.5625 L 531.625 516.5625 z M 538.28125 516.5625 L 541.71875 516.5625 L 541.71875 519.5625 L 538.28125 519.5625 L 538.28125 516.5625 z M 554.9375 516.5625 L 558.375 516.5625 L 558.375 519.5625 L 554.9375 519.5625 L 554.9375 516.5625 z M 561.59375 516.5625 L 565.03125 516.5625 L 565.03125 519.5625 L 561.59375 519.5625 L 561.59375 516.5625 z M 568.25 516.5625 L 571.6875 516.5625 L 571.6875 519.5625 L 568.25 519.5625 L 568.25 516.5625 z M 524.96875 528.15625 L 528.4375 528.15625 L 528.4375 531.15625 L 524.96875 531.15625 L 524.96875 528.15625 z M 531.625 528.15625 L 535.09375 528.15625 L 535.09375 531.15625 L 531.625 531.15625 L 531.625 528.15625 z M 538.28125 528.15625 L 541.71875 528.15625 L 541.71875 531.15625 L 538.28125 531.15625 L 538.28125 528.15625 z M 554.9375 528.15625 L 558.375 528.15625 L 558.375 531.15625 L 554.9375 531.15625 L 554.9375 528.15625 z M 561.59375 528.15625 L 565.03125 528.15625 L 565.03125 531.15625 L 561.59375 531.15625 L 561.59375 528.15625 z M 568.25 528.15625 L 571.6875 528.15625 L 571.6875 531.15625 L 568.25 531.15625 L 568.25 528.15625 z M 524.96875 539.71875 L 528.4375 539.71875 L 528.4375 542.71875 L 524.96875 542.71875 L 524.96875 539.71875 z M 531.625 539.71875 L 535.09375 539.71875 L 535.09375 542.71875 L 531.625 542.71875 L 531.625 539.71875 z M 538.28125 539.71875 L 541.71875 539.71875 L 541.71875 542.71875 L 538.28125 542.71875 L 538.28125 539.71875 z M 554.9375 539.71875 L 558.375 539.71875 L 558.375 542.71875 L 554.9375 542.71875 L 554.9375 539.71875 z M 561.59375 539.71875 L 565.03125 539.71875 L 565.03125 542.71875 L 561.59375 542.71875 L 561.59375 539.71875 z M 568.25 539.71875 L 571.6875 539.71875 L 571.6875 542.71875 L 568.25 542.71875 L 568.25 539.71875 z M 524.96875 551.28125 L 528.4375 551.28125 L 528.4375 554.28125 L 524.96875 554.28125 L 524.96875 551.28125 z M 531.625 551.28125 L 535.09375 551.28125 L 535.09375 554.28125 L 531.625 554.28125 L 531.625 551.28125 z M 538.28125 551.28125 L 541.71875 551.28125 L 541.71875 554.28125 L 538.28125 554.28125 L 538.28125 551.28125 z M 554.9375 551.28125 L 558.375 551.28125 L 558.375 554.28125 L 554.9375 554.28125 L 554.9375 551.28125 z M 561.59375 551.28125 L 565.03125 551.28125 L 565.03125 554.28125 L 561.59375 554.28125 L 561.59375 551.28125 z M 568.25 551.28125 L 571.6875 551.28125 L 571.6875 554.28125 L 568.25 554.28125 L 568.25 551.28125 z M 524.96875 562.84375 L 528.4375 562.84375 L 528.4375 565.875 L 524.96875 565.875 L 524.96875 562.84375 z M 531.625 562.84375 L 535.09375 562.84375 L 535.09375 565.875 L 531.625 565.875 L 531.625 562.84375 z M 538.28125 562.84375 L 541.71875 562.84375 L 541.71875 565.875 L 538.28125 565.875 L 538.28125 562.84375 z M 554.9375 562.84375 L 558.375 562.84375 L 558.375 565.875 L 554.9375 565.875 L 554.9375 562.84375 z M 561.59375 562.84375 L 565.03125 562.84375 L 565.03125 565.875 L 561.59375 565.875 L 561.59375 562.84375 z M 568.25 562.84375 L 571.6875 562.84375 L 571.6875 565.875 L 568.25 565.875 L 568.25 562.84375 z M 524.71875 573.90625 L 528.1875 573.90625 L 528.1875 576.9375 L 524.71875 576.9375 L 524.71875 573.90625 z M 531.375 573.90625 L 534.84375 573.90625 L 534.84375 576.9375 L 531.375 576.9375 L 531.375 573.90625 z M 538.03125 573.90625 L 541.46875 573.90625 L 541.46875 576.9375 L 538.03125 576.9375 L 538.03125 573.90625 z M 554.6875 573.90625 L 558.125 573.90625 L 558.125 576.9375 L 554.6875 576.9375 L 554.6875 573.90625 z M 561.34375 573.90625 L 564.78125 573.90625 L 564.78125 576.9375 L 561.34375 576.9375 L 561.34375 573.90625 z M 568 573.90625 L 571.4375 573.90625 L 571.4375 576.9375 L 568 576.9375 L 568 573.90625 z M 524.71875 585.5 L 528.1875 585.5 L 528.1875 588.5 L 524.71875 588.5 L 524.71875 585.5 z M 531.375 585.5 L 534.84375 585.5 L 534.84375 588.5 L 531.375 588.5 L 531.375 585.5 z M 538.03125 585.5 L 541.46875 585.5 L 541.46875 588.5 L 538.03125 588.5 L 538.03125 585.5 z M 554.6875 585.5 L 558.125 585.5 L 558.125 588.5 L 554.6875 588.5 L 554.6875 585.5 z M 561.34375 585.5 L 564.78125 585.5 L 564.78125 588.5 L 561.34375 588.5 L 561.34375 585.5 z M 568 585.5 L 571.4375 585.5 L 571.4375 588.5 L 568 588.5 L 568 585.5 z M 524.71875 597.0625 L 528.1875 597.0625 L 528.1875 600.0625 L 524.71875 600.0625 L 524.71875 597.0625 z M 531.375 597.0625 L 534.84375 597.0625 L 534.84375 600.0625 L 531.375 600.0625 L 531.375 597.0625 z M 538.03125 597.0625 L 541.46875 597.0625 L 541.46875 600.0625 L 538.03125 600.0625 L 538.03125 597.0625 z M 554.6875 597.0625 L 558.125 597.0625 L 558.125 600.0625 L 554.6875 600.0625 L 554.6875 597.0625 z M 561.34375 597.0625 L 564.78125 597.0625 L 564.78125 600.0625 L 561.34375 600.0625 L 561.34375 597.0625 z M 568 597.0625 L 571.4375 597.0625 L 571.4375 600.0625 L 568 600.0625 L 568 597.0625 z M 524.71875 608.625 L 528.1875 608.625 L 528.1875 611.625 L 524.71875 611.625 L 524.71875 608.625 z M 531.375 608.625 L 534.84375 608.625 L 534.84375 611.625 L 531.375 611.625 L 531.375 608.625 z M 538.03125 608.625 L 541.46875 608.625 L 541.46875 611.625 L 538.03125 611.625 L 538.03125 608.625 z M 554.6875 608.625 L 558.125 608.625 L 558.125 611.625 L 554.6875 611.625 L 554.6875 608.625 z M 561.34375 608.625 L 564.78125 608.625 L 564.78125 611.625 L 561.34375 611.625 L 561.34375 608.625 z M 568 608.625 L 571.4375 608.625 L 571.4375 611.625 L 568 611.625 L 568 608.625 z M 524.71875 620.21875 L 528.1875 620.21875 L 528.1875 623.21875 L 524.71875 623.21875 L 524.71875 620.21875 z M 531.375 620.21875 L 534.84375 620.21875 L 534.84375 623.21875 L 531.375 623.21875 L 531.375 620.21875 z M 538.03125 620.21875 L 541.46875 620.21875 L 541.46875 623.21875 L 538.03125 623.21875 L 538.03125 620.21875 z M 554.6875 620.21875 L 558.125 620.21875 L 558.125 623.21875 L 554.6875 623.21875 L 554.6875 620.21875 z M 561.34375 620.21875 L 564.78125 620.21875 L 564.78125 623.21875 L 561.34375 623.21875 L 561.34375 620.21875 z M 568 620.21875 L 571.4375 620.21875 L 571.4375 623.21875 L 568 623.21875 L 568 620.21875 z M 524.71875 631.78125 L 528.1875 631.78125 L 528.1875 634.78125 L 524.71875 634.78125 L 524.71875 631.78125 z M 531.375 631.78125 L 534.84375 631.78125 L 534.84375 634.78125 L 531.375 634.78125 L 531.375 631.78125 z M 538.03125 631.78125 L 541.46875 631.78125 L 541.46875 634.78125 L 538.03125 634.78125 L 538.03125 631.78125 z M 554.6875 631.78125 L 558.125 631.78125 L 558.125 634.78125 L 554.6875 634.78125 L 554.6875 631.78125 z M 561.34375 631.78125 L 564.78125 631.78125 L 564.78125 634.78125 L 561.34375 634.78125 L 561.34375 631.78125 z M 568 631.78125 L 571.4375 631.78125 L 571.4375 634.78125 L 568 634.78125 L 568 631.78125 z M 524.71875 643.34375 L 528.1875 643.34375 L 528.1875 646.34375 L 524.71875 646.34375 L 524.71875 643.34375 z M 531.375 643.34375 L 534.84375 643.34375 L 534.84375 646.34375 L 531.375 646.34375 L 531.375 643.34375 z M 538.03125 643.34375 L 541.46875 643.34375 L 541.46875 646.34375 L 538.03125 646.34375 L 538.03125 643.34375 z M 554.6875 643.34375 L 558.125 643.34375 L 558.125 646.34375 L 554.6875 646.34375 L 554.6875 643.34375 z M 561.34375 643.34375 L 564.78125 643.34375 L 564.78125 646.34375 L 561.34375 646.34375 L 561.34375 643.34375 z M 568 643.34375 L 571.4375 643.34375 L 571.4375 646.34375 L 568 646.34375 L 568 643.34375 z M 524.71875 654.90625 L 528.1875 654.90625 L 528.1875 657.9375 L 524.71875 657.9375 L 524.71875 654.90625 z M 531.375 654.90625 L 534.84375 654.90625 L 534.84375 657.9375 L 531.375 657.9375 L 531.375 654.90625 z M 538.03125 654.90625 L 541.46875 654.90625 L 541.46875 657.9375 L 538.03125 657.9375 L 538.03125 654.90625 z M 554.6875 654.90625 L 558.125 654.90625 L 558.125 657.9375 L 554.6875 657.9375 L 554.6875 654.90625 z M 561.34375 654.90625 L 564.78125 654.90625 L 564.78125 657.9375 L 561.34375 657.9375 L 561.34375 654.90625 z M 568 654.90625 L 571.4375 654.90625 L 571.4375 657.9375 L 568 657.9375 L 568 654.90625 z "
       transform="translate(0,308.2677)"
       id="rect3798" />
    <path
       sodipodi:nodetypes="ccc"
       inkscape:connector-curvature="0"
       id="path3755"
       d="m 1056.168,1056.162 c -1.2384,-49.8635 0.3995,-45.6996 -1.8605,-70.72266 C 870.64378,762.54115 556.21932,964.91146 307.3103,1104.0753"
       style="fill:url(#linearGradient3763);fill-opacity:1;stroke:#000000;stroke-width:0;stroke-linecap:butt;stroke-linejoin:miter;stroke-miterlimit:4;stroke-opacity:1;stroke-dasharray:none" />
    <path
       style="fill:url(#linearGradient3785);fill-opacity:1;fill-rule:evenodd;stroke:none"
       d="M 279.625 464.46875 L 279.625 642.59375 L 329.4375 642.59375 L 329.4375 464.46875 L 279.625 464.46875 z M 287.46875 471.3125 L 290.9375 471.3125 L 290.9375 474.34375 L 287.46875 474.34375 L 287.46875 471.3125 z M 294.125 471.3125 L 297.59375 471.3125 L 297.59375 474.34375 L 294.125 474.34375 L 294.125 471.3125 z M 300.78125 471.3125 L 304.21875 471.3125 L 304.21875 474.34375 L 300.78125 474.34375 L 300.78125 471.3125 z M 307.4375 471.3125 L 310.875 471.3125 L 310.875 474.34375 L 307.4375 474.34375 L 307.4375 471.3125 z M 314.09375 471.3125 L 317.53125 471.3125 L 317.53125 474.34375 L 314.09375 474.34375 L 314.09375 471.3125 z M 320.75 471.3125 L 324.1875 471.3125 L 324.1875 474.34375 L 320.75 474.34375 L 320.75 471.3125 z M 287.46875 482.90625 L 290.9375 482.90625 L 290.9375 485.90625 L 287.46875 485.90625 L 287.46875 482.90625 z M 294.125 482.90625 L 297.59375 482.90625 L 297.59375 485.90625 L 294.125 485.90625 L 294.125 482.90625 z M 300.78125 482.90625 L 304.21875 482.90625 L 304.21875 485.90625 L 300.78125 485.90625 L 300.78125 482.90625 z M 307.4375 482.90625 L 310.875 482.90625 L 310.875 485.90625 L 307.4375 485.90625 L 307.4375 482.90625 z M 314.09375 482.90625 L 317.53125 482.90625 L 317.53125 485.90625 L 314.09375 485.90625 L 314.09375 482.90625 z M 320.75 482.90625 L 324.1875 482.90625 L 324.1875 485.90625 L 320.75 485.90625 L 320.75 482.90625 z M 287.46875 494.46875 L 290.9375 494.46875 L 290.9375 497.46875 L 287.46875 497.46875 L 287.46875 494.46875 z M 294.125 494.46875 L 297.59375 494.46875 L 297.59375 497.46875 L 294.125 497.46875 L 294.125 494.46875 z M 300.78125 494.46875 L 304.21875 494.46875 L 304.21875 497.46875 L 300.78125 497.46875 L 300.78125 494.46875 z M 307.4375 494.46875 L 310.875 494.46875 L 310.875 497.46875 L 307.4375 497.46875 L 307.4375 494.46875 z M 314.09375 494.46875 L 317.53125 494.46875 L 317.53125 497.46875 L 314.09375 497.46875 L 314.09375 494.46875 z M 320.75 494.46875 L 324.1875 494.46875 L 324.1875 497.46875 L 320.75 497.46875 L 320.75 494.46875 z M 287.46875 506.03125 L 290.9375 506.03125 L 290.9375 509.03125 L 287.46875 509.03125 L 287.46875 506.03125 z M 294.125 506.03125 L 297.59375 506.03125 L 297.59375 509.03125 L 294.125 509.03125 L 294.125 506.03125 z M 300.78125 506.03125 L 304.21875 506.03125 L 304.21875 509.03125 L 300.78125 509.03125 L 300.78125 506.03125 z M 307.4375 506.03125 L 310.875 506.03125 L 310.875 509.03125 L 307.4375 509.03125 L 307.4375 506.03125 z M 314.09375 506.03125 L 317.53125 506.03125 L 317.53125 509.03125 L 314.09375 509.03125 L 314.09375 506.03125 z M 320.75 506.03125 L 324.1875 506.03125 L 324.1875 509.03125 L 320.75 509.03125 L 320.75 506.03125 z M 287.46875 517.625 L 290.9375 517.625 L 290.9375 520.625 L 287.46875 520.625 L 287.46875 517.625 z M 294.125 517.625 L 297.59375 517.625 L 297.59375 520.625 L 294.125 520.625 L 294.125 517.625 z M 300.78125 517.625 L 304.21875 517.625 L 304.21875 520.625 L 300.78125 520.625 L 300.78125 517.625 z M 307.4375 517.625 L 310.875 517.625 L 310.875 520.625 L 307.4375 520.625 L 307.4375 517.625 z M 314.09375 517.625 L 317.53125 517.625 L 317.53125 520.625 L 314.09375 520.625 L 314.09375 517.625 z M 320.75 517.625 L 324.1875 517.625 L 324.1875 520.625 L 320.75 520.625 L 320.75 517.625 z M 287.46875 529.1875 L 290.9375 529.1875 L 290.9375 532.1875 L 287.46875 532.1875 L 287.46875 529.1875 z M 294.125 529.1875 L 297.59375 529.1875 L 297.59375 532.1875 L 294.125 532.1875 L 294.125 529.1875 z M 300.78125 529.1875 L 304.21875 529.1875 L 304.21875 532.1875 L 300.78125 532.1875 L 300.78125 529.1875 z M 307.4375 529.1875 L 310.875 529.1875 L 310.875 532.1875 L 307.4375 532.1875 L 307.4375 529.1875 z M 314.09375 529.1875 L 317.53125 529.1875 L 317.53125 532.1875 L 314.09375 532.1875 L 314.09375 529.1875 z M 320.75 529.1875 L 324.1875 529.1875 L 324.1875 532.1875 L 320.75 532.1875 L 320.75 529.1875 z M 287.46875 540.75 L 290.9375 540.75 L 290.9375 543.75 L 287.46875 543.75 L 287.46875 540.75 z M 294.125 540.75 L 297.59375 540.75 L 297.59375 543.75 L 294.125 543.75 L 294.125 540.75 z M 300.78125 540.75 L 304.21875 540.75 L 304.21875 543.75 L 300.78125 543.75 L 300.78125 540.75 z M 307.4375 540.75 L 310.875 540.75 L 310.875 543.75 L 307.4375 543.75 L 307.4375 540.75 z M 314.09375 540.75 L 317.53125 540.75 L 317.53125 543.75 L 314.09375 543.75 L 314.09375 540.75 z M 320.75 540.75 L 324.1875 540.75 L 324.1875 543.75 L 320.75 543.75 L 320.75 540.75 z M 287.46875 552.3125 L 290.9375 552.3125 L 290.9375 555.34375 L 287.46875 555.34375 L 287.46875 552.3125 z M 294.125 552.3125 L 297.59375 552.3125 L 297.59375 555.34375 L 294.125 555.34375 L 294.125 552.3125 z M 300.78125 552.3125 L 304.21875 552.3125 L 304.21875 555.34375 L 300.78125 555.34375 L 300.78125 552.3125 z M 307.4375 552.3125 L 310.875 552.3125 L 310.875 555.34375 L 307.4375 555.34375 L 307.4375 552.3125 z M 314.09375 552.3125 L 317.53125 552.3125 L 317.53125 555.34375 L 314.09375 555.34375 L 314.09375 552.3125 z M 320.75 552.3125 L 324.1875 552.3125 L 324.1875 555.34375 L 320.75 555.34375 L 320.75 552.3125 z "
       transform="translate(0,308.2677)"
       id="rect3783" />
    <path
       style="fill:#ffffff;fill-opacity:1;fill-rule:evenodd;stroke:#ed0c0c;stroke-width:0;stroke-linecap:round;stroke-linejoin:round;stroke-miterlimit:4;stroke-opacity:1;stroke-dasharray:none;stroke-dashoffset:24.75000000000000000"
       d="m 835.47015,458.74349 c 6.1051,5.62988 9.9376,13.66556 9.9376,22.625 0,17.01635 -13.7962,30.8125 -30.8126,30.8125 -3.8271,0 -7.4941,-0.69348 -10.875,-1.96875 5.4952,5.08828 12.8578,8.1875 20.9376,8.1875 17.0163,0 30.8124,-13.7649 30.8124,-30.78125 0,-13.20885 -8.3212,-24.49399 -20,-28.875 z"
       id="path3840"
       inkscape:connector-curvature="0" />
    <path
       sodipodi:type="star"
       style="fill:#ffffff;fill-opacity:1;fill-rule:evenodd;stroke:#ed0c0c;stroke-width:0;stroke-linecap:round;stroke-linejoin:round;stroke-miterlimit:4;stroke-opacity:1;stroke-dasharray:none;stroke-dashoffset:24.75"
       id="path4135"
       sodipodi:sides="5"
       sodipodi:cx="121.88902"
       sodipodi:cy="195.5939"
       sodipodi:r1="35.755138"
       sodipodi:r2="11.232615"
       sodipodi:arg1="1.0471976"
       sodipodi:arg2="1.7379386"
       inkscape:flatsided="false"
       inkscape:rounded="0"
       inkscape:randomized="0"
       d="m 139.76659,226.55876 -19.74628,-19.88878 -22.056146,15.49517 12.813416,-24.9258 -21.552501,-16.18837 27.665411,4.48378 8.73596,-25.50013 4.28475,27.69694 26.95163,0.42842 -25.01729,12.63386 z"
       transform="matrix(0.29666478,0,0,0.29666478,93.904555,386.35511)"
       inkscape:transform-center-x="2.651824" />
    <path
       inkscape:transform-center-x="0.0034764008"
       transform="matrix(-0.0048703,0.19481209,-0.19481209,-0.0048703,905.11185,377.62218)"
       d="m 139.76659,226.55876 -19.74628,-19.88878 -22.056146,15.49517 12.813416,-24.9258 -21.552501,-16.18837 27.665411,4.48378 8.73596,-25.50013 4.28475,27.69694 26.95163,0.42842 -25.01729,12.63386 z"
       inkscape:randomized="0"
       inkscape:rounded="0"
       inkscape:flatsided="false"
       sodipodi:arg2="1.7379386"
       sodipodi:arg1="1.0471976"
       sodipodi:r2="11.232615"
       sodipodi:r1="35.755138"
       sodipodi:cy="195.5939"
       sodipodi:cx="121.88902"
       sodipodi:sides="5"
       id="path4137"
       style="fill:#ffffff;fill-opacity:1;fill-rule:evenodd;stroke:#ed0c0c;stroke-width:0;stroke-linecap:round;stroke-linejoin:round;stroke-miterlimit:4;stroke-opacity:1;stroke-dasharray:none;stroke-dashoffset:24.75"
       sodipodi:type="star"
       inkscape:transform-center-y="-1.6990542" />
    <path
       sodipodi:type="star"
       style="fill:#ffffff;fill-opacity:1;fill-rule:evenodd;stroke:#ed0c0c;stroke-width:0;stroke-linecap:round;stroke-linejoin:round;stroke-miterlimit:4;stroke-opacity:1;stroke-dasharray:none;stroke-dashoffset:24.75"
       id="path4139"
       sodipodi:sides="5"
       sodipodi:cx="121.88902"
       sodipodi:cy="195.5939"
       sodipodi:r1="35.755138"
       sodipodi:r2="11.232615"
       sodipodi:arg1="1.0471976"
       sodipodi:arg2="1.7379386"
       inkscape:flatsided="false"
       inkscape:rounded="0"
       inkscape:randomized="0"
       d="m 139.76659,226.55876 -19.74628,-19.88878 -22.056146,15.49517 12.813416,-24.9258 -21.552501,-16.18837 27.665411,4.48378 8.73596,-25.50013 4.28475,27.69694 26.95163,0.42842 -25.01729,12.63386 z"
       transform="matrix(-0.0048703,0.19481209,-0.19481209,-0.0048703,366.18651,368.14192)"
       inkscape:transform-center-x="0.0034764008"
       inkscape:transform-center-y="-1.6990542" />
    <path
       inkscape:transform-center-x="1.65094"
       transform="matrix(0.18469378,0,0,0.18469378,395.07449,330.46377)"
       d="m 139.76659,226.55876 -19.74628,-19.88878 -22.056146,15.49517 12.813416,-24.9258 -21.552501,-16.18837 27.665411,4.48378 8.73596,-25.50013 4.28475,27.69694 26.95163,0.42842 -25.01729,12.63386 z"
       inkscape:randomized="0"
       inkscape:rounded="0"
       inkscape:flatsided="false"
       sodipodi:arg2="1.7379386"
       sodipodi:arg1="1.0471976"
       sodipodi:r2="11.232615"
       sodipodi:r1="35.755138"
       sodipodi:cy="195.5939"
       sodipodi:cx="121.88902"
       sodipodi:sides="5"
       id="path4141"
       style="fill:#ffffff;fill-opacity:1;fill-rule:evenodd;stroke:#ed0c0c;stroke-width:0;stroke-linecap:round;stroke-linejoin:round;stroke-miterlimit:4;stroke-opacity:1;stroke-dasharray:none;stroke-dashoffset:24.75"
       sodipodi:type="star" />
    <path
       inkscape:transform-center-x="2.1638845"
       transform="matrix(0.13484354,0.25412173,-0.25412173,0.13484354,981.45038,291.54366)"
       d="m 139.76659,226.55876 -19.74628,-19.88878 -22.056146,15.49517 12.813416,-24.9258 -21.552501,-16.18837 27.665411,4.48378 8.73596,-25.50013 4.28475,27.69694 26.95163,0.42842 -25.01729,12.63386 z"
       inkscape:randomized="0"
       inkscape:rounded="0"
       inkscape:flatsided="false"
       sodipodi:arg2="1.7379386"
       sodipodi:arg1="1.0471976"
       sodipodi:r2="11.232615"
       sodipodi:r1="35.755138"
       sodipodi:cy="195.5939"
       sodipodi:cx="121.88902"
       sodipodi:sides="5"
       id="path4143"
       style="fill:#ffffff;fill-opacity:1;fill-rule:evenodd;stroke:#ed0c0c;stroke-width:0;stroke-linecap:round;stroke-linejoin:round;stroke-miterlimit:4;stroke-opacity:1;stroke-dasharray:none;stroke-dashoffset:24.75"
       sodipodi:type="star"
       inkscape:transform-center-y="-3.0268403" />
    <path
       inkscape:transform-center-y="-1.3318851"
       sodipodi:type="star"
       style="fill:#ffffff;fill-opacity:1;fill-rule:evenodd;stroke:#ed0c0c;stroke-width:0;stroke-linecap:round;stroke-linejoin:round;stroke-miterlimit:4;stroke-opacity:1;stroke-dasharray:none;stroke-dashoffset:24.75"
       id="path4145"
       sodipodi:sides="5"
       sodipodi:cx="121.88902"
       sodipodi:cy="195.5939"
       sodipodi:r1="35.755138"
       sodipodi:r2="11.232615"
       sodipodi:arg1="1.0471976"
       sodipodi:arg2="1.7379386"
       inkscape:flatsided="false"
       inkscape:rounded="0"
       inkscape:randomized="0"
       d="m 139.76659,226.55876 -19.74628,-19.88878 -22.056146,15.49517 12.813416,-24.9258 -21.552501,-16.18837 27.665411,4.48378 8.73596,-25.50013 4.28475,27.69694 26.95163,0.42842 -25.01729,12.63386 z"
       transform="matrix(-0.16908887,0.08437639,-0.08437639,-0.16908887,546.65303,470.0997)"
       inkscape:transform-center-x="-2.0701961" />
    <path
       inkscape:transform-center-y="-1.3318897"
       inkscape:transform-center-x="-2.0701911"
       transform="matrix(-0.16908887,0.08437639,-0.08437639,-0.16908887,624.99956,365.27407)"
       d="m 139.76659,226.55876 -19.74628,-19.88878 -22.056146,15.49517 12.813416,-24.9258 -21.552501,-16.18837 27.665411,4.48378 8.73596,-25.50013 4.28475,27.69694 26.95163,0.42842 -25.01729,12.63386 z"
       inkscape:randomized="0"
       inkscape:rounded="0"
       inkscape:flatsided="false"
       sodipodi:arg2="1.7379386"
       sodipodi:arg1="1.0471976"
       sodipodi:r2="11.232615"
       sodipodi:r1="35.755138"
       sodipodi:cy="195.5939"
       sodipodi:cx="121.88902"
       sodipodi:sides="5"
       id="path4147"
       style="fill:#ffffff;fill-opacity:1;fill-rule:evenodd;stroke:#ed0c0c;stroke-width:0;stroke-linecap:round;stroke-linejoin:round;stroke-miterlimit:4;stroke-opacity:1;stroke-dasharray:none;stroke-dashoffset:24.75"
       sodipodi:type="star" />
    <path
       sodipodi:type="star"
       style="fill:#ffffff;fill-opacity:1;fill-rule:evenodd;stroke:#ed0c0c;stroke-width:0;stroke-linecap:round;stroke-linejoin:round;stroke-miterlimit:4;stroke-opacity:1;stroke-dasharray:none;stroke-dashoffset:24.75"
       id="path4149"
       sodipodi:sides="5"
       sodipodi:cx="121.88902"
       sodipodi:cy="195.5939"
       sodipodi:r1="35.755138"
       sodipodi:r2="11.232615"
       sodipodi:arg1="1.0471976"
       sodipodi:arg2="1.7379386"
       inkscape:flatsided="false"
       inkscape:rounded="0"
       inkscape:randomized="0"
       d="m 139.76659,226.55876 -19.74628,-19.88878 -22.056146,15.49517 12.813416,-24.9258 -21.552501,-16.18837 27.665411,4.48378 8.73596,-25.50013 4.28475,27.69694 26.95163,0.42842 -25.01729,12.63386 z"
       transform="matrix(0.08394917,0.15820787,-0.15820787,0.08394917,774.6565,353.02858)"
       inkscape:transform-center-x="1.347161"
       inkscape:transform-center-y="-1.8844137" />
    <path
       inkscape:transform-center-y="0.65635918"
       inkscape:transform-center-x="-2.1789243"
       transform="matrix(-0.14817131,-0.12657303,0.12657303,-0.14817131,925.52066,609.78021)"
       d="m 139.76659,226.55876 -19.74628,-19.88878 -22.056146,15.49517 12.813416,-24.9258 -21.552501,-16.18837 27.665411,4.48378 8.73596,-25.50013 4.28475,27.69694 26.95163,0.42842 -25.01729,12.63386 z"
       inkscape:randomized="0"
       inkscape:rounded="0"
       inkscape:flatsided="false"
       sodipodi:arg2="1.7379386"
       sodipodi:arg1="1.0471976"
       sodipodi:r2="11.232615"
       sodipodi:r1="35.755138"
       sodipodi:cy="195.5939"
       sodipodi:cx="121.88902"
       sodipodi:sides="5"
       id="path4151"
       style="fill:#ffffff;fill-opacity:1;fill-rule:evenodd;stroke:#ed0c0c;stroke-width:0;stroke-linecap:round;stroke-linejoin:round;stroke-miterlimit:4;stroke-opacity:1;stroke-dasharray:none;stroke-dashoffset:24.75"
       sodipodi:type="star" />
    <path
       sodipodi:type="star"
       style="fill:#ffffff;fill-opacity:1;fill-rule:evenodd;stroke:#ed0c0c;stroke-width:0;stroke-linecap:round;stroke-linejoin:round;stroke-miterlimit:4;stroke-opacity:1;stroke-dasharray:none;stroke-dashoffset:24.75"
       id="path4153"
       sodipodi:sides="5"
       sodipodi:cx="121.88902"
       sodipodi:cy="195.5939"
       sodipodi:r1="35.755138"
       sodipodi:r2="11.232615"
       sodipodi:arg1="1.0471976"
       sodipodi:arg2="1.7379386"
       inkscape:flatsided="false"
       inkscape:rounded="0"
       inkscape:randomized="0"
       d="m 139.76659,226.55876 -19.74628,-19.88878 -22.056146,15.49517 12.813416,-24.9258 -21.552501,-16.18837 27.665411,4.48378 8.73596,-25.50013 4.28475,27.69694 26.95163,0.42842 -25.01729,12.63386 z"
       transform="matrix(-0.11641434,0.14338582,-0.14338582,-0.11641434,319.55215,491.96577)"
       inkscape:transform-center-x="-0.52900712"
       inkscape:transform-center-y="-2.0365225" />
    <path
       inkscape:transform-center-x="-0.029322579"
       transform="matrix(0.04107334,-0.18445434,0.18445434,0.04107334,355.18692,487.95745)"
       d="m 139.76659,226.55876 -19.74628,-19.88878 -22.056146,15.49517 12.813416,-24.9258 -21.552501,-16.18837 27.665411,4.48378 8.73596,-25.50013 4.28475,27.69694 26.95163,0.42842 -25.01729,12.63386 z"
       inkscape:randomized="0"
       inkscape:rounded="0"
       inkscape:flatsided="false"
       sodipodi:arg2="1.7379386"
       sodipodi:arg1="1.0471976"
       sodipodi:r2="11.232615"
       sodipodi:r1="35.755138"
       sodipodi:cy="195.5939"
       sodipodi:cx="121.88902"
       sodipodi:sides="5"
       id="path4155"
       style="fill:#ffffff;fill-opacity:1;fill-rule:evenodd;stroke:#ed0c0c;stroke-width:0;stroke-linecap:round;stroke-linejoin:round;stroke-miterlimit:4;stroke-opacity:1;stroke-dasharray:none;stroke-dashoffset:24.75"
       sodipodi:type="star"
       inkscape:transform-center-y="1.3301833" />
    <path
       sodipodi:type="star"
       style="fill:#ffffff;fill-opacity:1;fill-rule:evenodd;stroke:#ed0c0c;stroke-width:0;stroke-linecap:round;stroke-linejoin:round;stroke-miterlimit:4;stroke-opacity:1;stroke-dasharray:none;stroke-dashoffset:24.75"
       id="path4157"
       sodipodi:sides="5"
       sodipodi:cx="121.88902"
       sodipodi:cy="195.5939"
       sodipodi:r1="35.755138"
       sodipodi:r2="11.232615"
       sodipodi:arg1="1.0471976"
       sodipodi:arg2="1.7379386"
       inkscape:flatsided="false"
       inkscape:rounded="0"
       inkscape:randomized="0"
       d="m 139.76659,226.55876 -19.74628,-19.88878 -22.056146,15.49517 12.813416,-24.9258 -21.552501,-16.18837 27.665411,4.48378 8.73596,-25.50013 4.28475,27.69694 26.95163,0.42842 -25.01729,12.63386 z"
       transform="matrix(0.04107334,-0.18445434,0.18445434,0.04107334,323.18883,361.06098)"
       inkscape:transform-center-x="-0.029325833"
       inkscape:transform-center-y="1.3301802" />
  </g>
</svg>
