<?xml version="1.0" encoding="UTF-8" standalone="no"?>
<!-- Created with Inkscape (http://www.inkscape.org/) -->

<svg
   xmlns:dc="http://purl.org/dc/elements/1.1/"
   xmlns:cc="http://creativecommons.org/ns#"
   xmlns:rdf="http://www.w3.org/1999/02/22-rdf-syntax-ns#"
   xmlns:svg="http://www.w3.org/2000/svg"
   xmlns="http://www.w3.org/2000/svg"
   version="1.1"
   width="100%"
   height="100%"
   viewBox="0 0 535 535"
   id="svg3097"
   xml:space="preserve"
   style="fill-rule:evenodd"><defs
     id="defs3099"><style
       type="text/css"
       id="style3101" /></defs><g
     id="Layer_x0020_1"><path
       d="m 268,259 c 5,0 9,4 9,9 0,5 -4,9 -9,9 -5,0 -9,-4 -9,-9 0,-5 4,-9 9,-9 z"
       id="path3104"
       style="fill:#ef4929;fill-opacity:1" /><path
       d="m 268,226 c 23,0 42,19 42,42 0,23 -19,42 -42,42 -23,0 -42,-19 -42,-42 0,-23 19,-42 42,-42 z m 0,18 c 13,0 24,11 24,24 0,13 -11,24 -24,24 -13,0 -24,-11 -24,-24 0,-13 11,-24 24,-24 z"
       id="path3106"
       style="fill:#ef4929;fill-opacity:1" /><path
       d="m 281,86 c 40,3 77,19 106,44 l 17,-17 c 2,-7 7,-16 14,-23 14,-14 32,-19 39,-12 8,8 2,25 -12,39 -7,7 -15,12 -23,14 l -17,17 c 25,29 41,65 44,105 h 24 c 7,-4 16,-6 26,-6 20,0 36,9 36,20 0,11 -16,20 -36,20 -10,0 -20,-2 -26,-6 h -24 c -3,40 -19,77 -44,106 l 17,17 c 7,2 16,7 23,14 14,14 19,32 12,39 -8,8 -25,2 -39,-12 -7,-7 -12,-15 -14,-23 l -17,-17 c -29,25 -65,41 -105,44 v 24 c 4,7 6,16 6,26 0,20 -9,36 -20,36 -11,0 -20,-16 -20,-36 0,-10 2,-20 6,-26 v -24 c -40,-3 -77,-19 -106,-44 l -17,17 c -2,7 -7,16 -14,23 -14,14 -32,19 -39,12 -8,-8 -2,-25 12,-39 7,-7 15,-12 23,-14 l 17,-17 C 105,358 89,322 86,282 H 62 c -7,4 -16,6 -26,6 -20,0 -36,-9 -36,-20 0,-11 16,-20 36,-20 10,0 20,2 26,6 h 24 c 3,-40 19,-77 44,-106 L 113,131 C 106,129 97,124 90,117 76,103 71,85 78,78 c 8,-8 25,-2 39,12 7,7 12,15 14,23 l 17,17 C 177,105 213,89 253,86 V 62 c -4,-7 -6,-16 -6,-26 0,-20 9,-36 20,-36 11,0 20,16 20,36 0,10 -2,20 -6,26 v 24 z m -13,31 c 83,0 151,68 151,151 0,83 -68,151 -151,151 -83,0 -151,-68 -151,-151 0,-83 68,-151 151,-151 z"
       id="path3108"
       style="fill:#ef4929;fill-opacity:1" /><path
       d="m 284,403 h -34 v -16 h 11 c -4,-6 -7,-19 -7,-33 0,-21 6,-38 13,-38 7,0 13,17 13,38 0,14 -3,27 -7,33 h 11 v 16 z m -100,-28 -24,-24 11,-11 8,8 c 2,-7 9,-18 19,-28 15,-15 31,-23 36,-18 5,5 -3,21 -18,36 -10,10 -21,17 -28,19 l 8,8 -11,11 z m 191,-23 -24,24 -11,-11 8,-8 c -7,-2 -18,-9 -28,-19 -15,-15 -23,-31 -18,-36 5,-5 21,3 36,18 10,10 17,21 19,28 l 8,-8 11,11 z m 28,-100 v 34 h -16 v -11 c -6,4 -19,7 -33,7 -21,0 -38,-6 -38,-13 0,-7 17,-13 38,-13 14,0 27,3 33,7 v -11 h 16 z m -51,-91 24,24 -11,11 -8,-8 c -2,7 -9,18 -19,28 -15,15 -31,23 -36,18 -5,-5 3,-21 18,-36 10,-10 21,-17 28,-19 l -8,-8 11,-11 z M 252,133 h 34 v 16 h -11 c 4,6 7,19 7,33 0,21 -6,38 -13,38 -7,0 -13,-17 -13,-38 0,-14 3,-27 7,-33 h -11 v -16 z m -91,51 24,-24 11,11 -8,8 c 7,2 18,9 28,19 15,15 23,31 18,36 -5,5 -21,-3 -36,-18 -10,-10 -17,-21 -19,-28 l -8,8 -11,-11 z m -28,100 v -34 h 16 v 11 c 6,-4 19,-7 33,-7 21,0 38,6 38,13 0,7 -17,13 -38,13 -14,0 -27,-3 -33,-7 v 11 h -16 z"
       id="path3110"
       style="fill:#ef4929;fill-opacity:1" /></g><metadata
     id="metadata3112"><rdf:RDF><cc:Work><dc:format>image/svg+xml</dc:format><dc:type
           rdf:resource="http://purl.org/dc/dcmitype/StillImage" /><cc:license
           rdf:resource="http://creativecommons.org/licenses/publicdomain/" /><dc:publisher><cc:Agent
             rdf:about="http://openclipart.org/"><dc:title>Openclipart</dc:title></cc:Agent></dc:publisher><dc:title></dc:title><dc:date>2012-02-09T13:45:31</dc:date><dc:description>Another variation of the captains wheel</dc:description><dc:source>http://openclipart.org/detail/168039/captains-wheel-by-thebyteman</dc:source><dc:creator><cc:Agent><dc:title>TheByteMan</dc:title></cc:Agent></dc:creator><dc:subject><rdf:Bag><rdf:li>captain wheel</rdf:li><rdf:li>clip art</rdf:li><rdf:li>clipart</rdf:li><rdf:li>ship</rdf:li><rdf:li>ship wheel</rdf:li></rdf:Bag></dc:subject></cc:Work><cc:License
         rdf:about="http://creativecommons.org/licenses/publicdomain/"><cc:permits
           rdf:resource="http://creativecommons.org/ns#Reproduction" /><cc:permits
           rdf:resource="http://creativecommons.org/ns#Distribution" /><cc:permits
           rdf:resource="http://creativecommons.org/ns#DerivativeWorks" /></cc:License></rdf:RDF></metadata></svg>