<?xml version="1.0" encoding="UTF-8" standalone="no"?>
<svg
   xmlns:dc="http://purl.org/dc/elements/1.1/"
   xmlns:cc="http://creativecommons.org/ns#"
   xmlns:rdf="http://www.w3.org/1999/02/22-rdf-syntax-ns#"
   xmlns:svg="http://www.w3.org/2000/svg"
   xmlns="http://www.w3.org/2000/svg"
   xmlns:sodipodi="http://sodipodi.sourceforge.net/DTD/sodipodi-0.dtd"
   xmlns:inkscape="http://www.inkscape.org/namespaces/inkscape"
   id="svg2"
   viewBox="0 0 720 720"
   version="1.0"
   inkscape:version="0.48.4 r"
   width="100%"
   height="100%"
   sodipodi:docname="zebra-heart-plain.svg">
  <defs
     id="defs3462" />
  <sodipodi:namedview
     pagecolor="#ffffff"
     bordercolor="#666666"
     borderopacity="1"
     objecttolerance="10"
     gridtolerance="10"
     guidetolerance="10"
     inkscape:pageopacity="0"
     inkscape:pageshadow="2"
     inkscape:window-width="1366"
     inkscape:window-height="705"
     id="namedview3460"
     showgrid="false"
     inkscape:zoom="0.32777778"
     inkscape:cx="360"
     inkscape:cy="360"
     inkscape:window-x="-8"
     inkscape:window-y="-8"
     inkscape:window-maximized="1"
     inkscape:current-layer="svg2" />
  <g
     id="layer1"
     style="fill:#917c6f">
    <path
       id="path2433"
       d="m180 45c-99.36 0-180 80.64-180 180 0 47.8 18.66 91.26 49.094 123.5l309.91 326.5 315.34-329.31c31.32-38.01 41.85-70.21 45.66-120.69 0-99.36-80.64-180-180-180-91.55 0-167.21 68.48-178.53 156.97h-2.94c-11.32-88.49-86.98-156.97-178.53-156.97z"
       style="fill:#917c6f" />
  </g>
  <g
     id="g4417"
     transform="matrix(.85714 0 0 .85714 52.286 63.076)"
     fill="#fff">
    <path
       id="path4419"
       fill="#fff"
       d="m180 45c-99.36 0-180 80.64-180 180 0 47.8 18.66 91.26 49.094 123.5l309.91 326.5 315.34-329.31c31.32-38.01 41.85-70.21 45.66-120.69 0-99.36-80.64-180-180-180-91.55 0-167.21 68.48-178.53 156.97h-2.94c-11.32-88.49-86.98-156.97-178.53-156.97z" />
  </g>
  <g
     id="g4421"
     transform="matrix(.71429 0 0 .71429 102.16 121.03)"
     style="fill:#917c6f">
    <path
       id="path4423"
       d="m180 45c-99.36 0-180 80.64-180 180 0 47.8 18.66 91.26 49.094 123.5l309.91 326.5 315.34-329.31c31.32-38.01 41.85-70.21 45.66-120.69 0-99.36-80.64-180-180-180-91.55 0-167.21 68.48-178.53 156.97h-2.94c-11.32-88.49-86.98-156.97-178.53-156.97z"
       style="fill:#917c6f" />
  </g>
  <g
     id="g4425"
     transform="matrix(.57143 0 0 .57143 153.25 180.11)"
     fill="#fff">
    <path
       id="path4427"
       fill="#fff"
       d="m180 45c-99.36 0-180 80.64-180 180 0 47.8 18.66 91.26 49.094 123.5l309.91 326.5 315.34-329.31c31.32-38.01 41.85-70.21 45.66-120.69 0-99.36-80.64-180-180-180-91.55 0-167.21 68.48-178.53 156.97h-2.94c-11.32-88.49-86.98-156.97-178.53-156.97z" />
  </g>
  <g
     id="g4429"
     transform="matrix(.42857 0 0 .42857 203.67 237.09)"
     style="fill:#917c6f">
    <path
       id="path4431"
       d="m180 45c-99.36 0-180 80.64-180 180 0 47.8 18.66 91.26 49.094 123.5l309.91 326.5 315.34-329.31c31.32-38.01 41.85-70.21 45.66-120.69 0-99.36-80.64-180-180-180-91.55 0-167.21 68.48-178.53 156.97h-2.94c-11.32-88.49-86.98-156.97-178.53-156.97z"
       style="fill:#917c6f" />
  </g>
  <g
     id="g4433"
     transform="matrix(.28571 0 0 .28571 255.92 293.7)"
     fill="#fff">
    <path
       id="path4435"
       fill="#fff"
       d="m175.25 42.187c-99.36 0-180 80.643-180 180 0 47.8 18.66 91.26 49.094 123.5l309.91 326.5 315.34-329.32c31.32-38 41.85-70.2 45.66-120.68 0-99.36-80.64-180-180-180-91.55-0.003-167.21 68.48-178.53 156.97h-2.94c-11.32-88.49-86.98-156.97-178.53-156.97z" />
  </g>
  <g
     id="g4439"
     transform="matrix(.14286 0 0 .14286 306.22 352.73)"
     style="fill:#917c6f">
    <path
       id="path4441"
       d="m175.25 42.187c-99.36 0-180 80.643-180 180 0 47.8 18.66 91.26 49.094 123.5l309.91 326.5 315.34-329.32c31.32-38 41.85-70.2 45.66-120.68 0-99.36-80.64-180-180-180-91.55-0.003-167.21 68.48-178.53 156.97h-2.94c-11.32-88.49-86.98-156.97-178.53-156.97z"
       style="fill:#917c6f" />
  </g>
  <metadata
     id="metadata3458">
    <rdf:RDF>
      <cc:Work>
        <dc:format>image/svg+xml</dc:format>
        <dc:type
           rdf:resource="http://purl.org/dc/dcmitype/StillImage" />
        <cc:license
           rdf:resource="http://creativecommons.org/licenses/publicdomain/" />
        <dc:publisher>
          <cc:Agent
             rdf:about="http://openclipart.org/">
            <dc:title>Openclipart</dc:title>
          </cc:Agent>
        </dc:publisher>
        <dc:title>zebra heart</dc:title>
        <dc:date>2011-01-16T20:21:07</dc:date>
        <dc:description>A variation of the heart to make it more exciting.</dc:description>
        <dc:source>http://openclipart.org/detail/105169/zebra-heart-by-10binary</dc:source>
        <dc:creator>
          <cc:Agent>
            <dc:title>10binary</dc:title>
          </cc:Agent>
        </dc:creator>
        <dc:subject>
          <rdf:Bag>
            <rdf:li>ajcooper</rdf:li>
            <rdf:li>clip art</rdf:li>
            <rdf:li>clipart</rdf:li>
            <rdf:li>heart</rdf:li>
            <rdf:li>stripe</rdf:li>
            <rdf:li>zebra</rdf:li>
          </rdf:Bag>
        </dc:subject>
      </cc:Work>
      <cc:License
         rdf:about="http://creativecommons.org/licenses/publicdomain/">
        <cc:permits
           rdf:resource="http://creativecommons.org/ns#Reproduction" />
        <cc:permits
           rdf:resource="http://creativecommons.org/ns#Distribution" />
        <cc:permits
           rdf:resource="http://creativecommons.org/ns#DerivativeWorks" />
      </cc:License>
    </rdf:RDF>
  </metadata>
</svg>
